<?xml version="1.0" encoding="UTF-8"?>
<!DOCTYPE svg PUBLIC "-//W3C//DTD SVG 1.1//EN" "http://www.w3.org/Graphics/SVG/1.1/DTD/svg11.dtd">
<!-- Creator: CorelDRAW 2020 (64-Bit) -->
<svg xmlns="http://www.w3.org/2000/svg" xml:space="preserve" width="559.235mm" height="180.008mm" version="1.1" style="shape-rendering:geometricPrecision; text-rendering:geometricPrecision; image-rendering:optimizeQuality; fill-rule:evenodd; clip-rule:evenodd"
viewBox="0 0 24183.34 7784.2"
 xmlns:xlink="http://www.w3.org/1999/xlink"
 xmlns:xodm="http://www.corel.com/coreldraw/odm/2003">
 <defs>
  <style type="text/css">
   <![CDATA[
    .fil0 {fill:#008069}
    .fil1 {fill:#008069}
    .fil4 {fill:#4B78F3}
    .fil3 {fill:#9FB7F8}
    .fil2 {fill:#FCFDFF}
   ]]>
  </style>
 </defs>
 <g id="Слой_x0020_1">
  <metadata id="CorelCorpID_0Corel-Layer"/>
  <path class="fil0" d="M8055.66 5802.59l-4.45 144.11c-10.34,8.7 -1515.39,1.68 -1797.71,3.24 -53.99,0.3 -44.6,10.34 -44.6,-76.97 0,-93.67 -36.09,-74.47 165.43,-74.47l1200.91 0c71.58,0 445.45,-7.36 480.42,4.09zm-3482.86 143.52c-50.96,6.78 -447.47,1.92 -534.37,1.92 -446.68,0 -893.36,0 -1340.04,0 -84.24,0 -190.25,5.66 -271.84,-0.91l-1.26 -129.65c0.75,-15.86 -2.55,-11.78 6.57,-17.27l2133.44 -0.56c11.78,4.7 8.62,11.31 8.29,29.2 -0.25,13.51 -0.22,26.95 -0.22,40.47 0,25.23 0.83,51.75 -0.56,76.8zm-532.65 -832.88c-10.59,-5.73 -1.42,0.73 -8.29,-5.61 -11.31,-10.44 -7.68,-17.37 -11.58,-32.07l-29.45 -85.14c-3.04,-6.27 -7.29,-9.93 -10.14,-17.94l-4.1 -18.34c-0.35,-1.03 -0.65,-2 -1.06,-2.96l-6.21 -8.75c-4.78,-6.28 -1.93,0.46 -5.23,-7.99 -3.22,-8.23 -1.95,-14.15 -3.83,-24.68 -5.4,-30.25 -3.24,5.94 -14.45,-45.17 -11.6,-52.91 -28.38,-32.56 -29.89,-85.59 -30.55,-16.74 -2.53,-28.72 -20.93,-51.43 -16.03,-15.56 -39.86,-3.3 -60.09,0.83 -24.27,4.97 -51.76,2.24 -77.04,5.15l-134.43 21.86c-26.27,7.13 -39.17,5.52 -68.09,8.63l-100.36 16.77c-10.24,2.68 -20.07,8.26 -29.19,10.01 -28.55,5.47 -43.75,0.42 -71.89,9.66 -22.82,7.49 -47.43,4.11 -67.41,10.21 -11.23,3.43 -12,8.03 -28.46,10.56 -11.99,1.85 -25.58,1.39 -36.26,4.14 -24.54,6.31 -7.48,8.49 -22.91,12.39 -9.16,2.32 -27.66,0.33 -38.95,2.62 -18.6,3.78 -8.16,6.56 -29.63,10.82 -8.54,1.7 -6.85,-0.23 -15.59,3.53l-8.27 5.72c-0.45,0.46 -1.2,1.25 -1.61,1.75 -7.94,9.73 -5.04,17.21 -11.86,28.76l-26.77 51.97c-4.8,14.16 -52.03,115.59 -64.44,128.99 -0.85,0.91 -2.06,1.75 -2.8,2.48 -0.77,0.76 -1.91,1.76 -3,2.45 -7.73,4.83 -8.21,17.83 -13.12,25.89l-16.71 34.38c-2.82,5.55 -4.49,7.49 -7.66,14.23 -0.42,0.9 -3.1,7.12 -3.45,7.73l-2.95 4.61c-0.45,0.64 -1.2,1.43 -1.67,2.04l-19.07 35.83c-21.7,36.06 -43.04,77.22 -68.45,111.01l-51.23 58.59c-10.99,12.32 -39.27,36.74 -54.05,44.23 -30.08,15.22 -96.9,8.15 -125.31,-7.26 -17.36,-9.41 -17.63,-5.86 -27.49,-23.36 -23.48,-41.74 -27.43,-115.93 -6.5,-160.88l25.89 -69.57c6.95,-25.76 32.92,-72.77 47.27,-99.24 3.07,-5.67 5.29,-7.92 7.99,-13.86l24.45 -48.83c12.3,-18.25 7.34,-17.92 16.32,-34.79l34.16 -64.69c5.89,-9.29 9.47,-21.56 14.98,-32.79l20.64 -41.88c4.51,-7.66 1.2,-2.59 4.55,-6.59 12.83,-15.3 8.11,-14.22 15.9,-30.91l93.02 -185.7c7.76,-10.82 6.4,-14.41 11.22,-28.21 2.08,-5.96 26.5,-48.23 30.47,-63.83l42.99 -104.07c2.59,-9.42 1.27,-12.03 5.24,-21.19l13.29 -34.23c3.92,-12.26 4.91,-8.46 9.08,-16.56 4.72,-9.17 2.48,-9.97 6.38,-19.37l29.2 -65.43c8.6,-23.71 8.77,-9.06 15.87,-42.3 1.68,-7.86 8.03,-9.69 13.02,-27.31l17.05 -57.48c6.38,-16.91 9.07,-11.23 16.03,-34.58l55.52 -138.92c10.98,-25.78 13.43,-26.63 20.27,-52.48 3.77,-14.24 4.01,-7.45 8.99,-16.88 10.94,-20.72 16.4,-48.14 27.62,-71.13 8.41,-17.22 5.73,-17.38 12.19,-35.37l28.5 -70.32c10.66,-32.26 32.74,-74.79 41.72,-105.47 7.14,-24.38 8.65,-13.12 14.81,-32.47 11.19,-35.18 30,-67.46 44.78,-101.81l16.73 -30.21c2.75,-7.74 1.47,-9.63 4.99,-17.54 3.89,-8.74 4.24,-4.07 9.32,-16.51 12.93,-31.68 13.41,-70.9 26.4,-94.18 5.67,-10.15 3.16,-6.75 7.44,-18.21l51.04 -73.23c43.55,-50.05 175.99,-28.03 221.49,16.62l33.69 39.57c12.96,20.56 6.55,11.8 13.86,38.25 6.52,23.59 8.37,1.31 14.04,33.1l21.77 73.25c10.94,19.58 5.25,18.37 11.42,40.3l29.19 91.09c4.47,16.25 2.38,6.07 9.06,16.18 8.59,13 3.49,25.77 9.5,41.74l22.44 72.87c5.06,13.83 2.18,27.11 8.23,39.8l11.9 39.39c4.85,24.48 8.51,10.14 12.84,34.39l20.81 74.31c6.82,16.59 2.4,-2.47 8.05,17.15 2.12,7.39 2.27,13.14 3.85,21.86 3.31,18.17 9.03,22.63 12.72,34.71l10.86 37c8.21,16.03 4.18,22.63 6.74,42.11 2.59,19.74 8.72,19.78 12.96,38.53 1.15,5.1 2.88,11.19 5.2,15.93 13.06,26.73 8.72,29.69 21.67,54.96 5.76,11.24 6.61,22.23 12.26,35.27 6.13,14.16 7.44,26.2 12.59,38.59 3.9,9.37 4.61,7.59 6.79,15.47 2.44,8.84 1.5,15.2 3.2,23.5 1.68,8.19 9.15,20.61 14.34,32.07 5.35,11.83 10.19,20.8 14.66,32.58l13.61 37.76c8.2,15.55 14.47,53.94 24.93,74.1 20.61,39.74 -5.94,43.85 50.98,47.17 15.94,0.93 25.73,4.13 39.62,8.63 3.68,1.19 11.31,3.45 16.48,5.8 15.62,7.1 32.28,17.55 39.51,33.51 20.1,44.31 -1.52,82.66 -13.73,96.68 -11.54,13.27 -20.81,27.73 -34.87,38.3 -24.12,18.12 -43.16,11.02 -27.42,62.67 1.93,6.33 23.81,46.58 27.97,67.06 6.71,33.01 0.76,12.86 14.14,36.47 17.65,31.14 24.29,73.88 41.69,104.48 9.74,17.13 3.98,27.97 10.25,41.97 7.64,17.06 18.37,28.31 29.65,64.9 5.57,18.07 8.37,11.32 14.36,33.2 4.49,16.41 9.1,19.09 15.14,36.17 7.71,21.78 22.02,46.98 27.07,72.29 2.61,13.09 2.53,27.6 7.1,40.55 5.2,14.69 8.9,20.58 9.87,41.38 2.16,46.72 -1.31,83.61 -25.06,118.33 -24.93,36.43 -60.83,43.5 -107.68,42.74 -20,-0.32 -23.45,-2.82 -39.63,-7.33 -9.68,-2.69 -22.4,-6.11 -30.97,-13.29 -0.57,-0.48 -1.32,-1.28 -1.88,-1.76 -20.32,-17.42 -40.14,-20.38 -55.78,-46.65 -4.15,-6.98 -5.14,-7.09 -8.83,-13.1 -5.49,-8.94 -3.45,-8.86 -8.13,-17.64 -5.15,-9.66 -4.36,-2.75 -9.34,-16.06l-41.99 -130.16c-6.75,-11.05 -9.15,-25.21 -6.63,-41.28zm2438.16 -1681.06c10.4,-39.06 -1,-106.98 25.11,-139.59l24.42 -22.7c6.15,-4.01 8.42,-4.96 18.45,-5.71 22.88,-1.71 72.21,-4.06 93.65,1.24 10.71,2.64 14.06,9.39 32.84,13.82 6.75,1.59 11.17,1.82 17.69,4.16 17.7,6.36 17.62,9.34 34.15,13.16 40.52,9.36 50.58,19.97 102.67,8.92l253.41 -36.45c23.61,-5.95 59.81,-4.04 86.81,-8.69 74.04,-12.74 107.89,-9.85 172.27,-17.71 68.74,-8.39 108.03,-4.38 173.93,4.17 68.81,8.93 36.15,7.31 78.44,17.06 41.22,9.5 43.58,15.63 69.74,29.03 14.6,7.48 18.4,5.02 32.29,15.49l57.34 44.98c0.55,0.49 1.36,1.19 1.92,1.67 2.83,2.46 2.45,1.76 6.09,4.95l28.2 30.04c0.58,0.48 1.49,1.1 2.08,1.6 14.66,12.38 26.15,32.94 33.19,48.87l18.22 28.79c12.15,23.14 9.75,37.41 19.2,53.97 12.06,21.14 18.14,102.66 16.05,127.34 -2.17,25.64 -3.09,64.23 -5.92,89.2 -1.69,14.84 -0.32,30.51 -3.2,45.16 -3.38,17.24 -10.2,21.1 -12.02,37.97 -1.67,15.52 0.96,31.33 -4.89,44.45 -6.34,14.24 -9.45,10.3 -13.19,32.7 -4.04,24.14 -7.29,17.44 -12.07,36.4l-46.53 96.2c-9.23,22.32 -22.46,36.01 -38.35,57.36 -10.34,13.9 -17.43,28.19 -30.78,39.36l-47.26 47.69c-6.92,5.09 -9.27,4.23 -16.06,9.63 -19.04,15.14 -33.51,29.15 -55.37,40.29l-29.28 18c-15.3,8.67 -24.1,8.99 -44.92,9.6 -2.41,28.49 -8.21,4.05 -11.42,23.31 -2.81,16.85 52.89,10.26 64.48,15.03 8.96,3.69 3.97,4.08 14.42,7.48l31.24 9.43c6.41,3.4 7.96,4.23 15.2,6.72l29.88 13.99c10.38,4.52 5.36,0.55 15.07,7l27.33 16.43c39.86,23.17 76.8,54.21 106.09,84.39l22.88 24.79c20.6,21.58 45.67,75.48 61.97,102.52 10.3,17.09 4.26,15.8 9.54,34.97 9.73,35.3 9.12,4.4 16.15,68.01 4.49,40.61 8.96,74.69 3.79,117.01 -1.85,15.19 -5.92,19.05 -6.32,36.27 -0.66,28.09 0.54,57.61 -3.37,82.12 -6.37,39.91 -26.44,86.23 -28.25,98.5 -1.42,9.69 -0.16,11.01 -3.67,19.39 -5.72,13.68 -6.91,8.72 -9.04,12.79 -6.64,12.67 0.09,15.59 -10.91,33.51l-36.77 69.02c-4.41,7.64 -2.7,6.96 -7.8,14.51l-93.8 107.53c-27.78,31.99 -43.94,36.12 -79.06,60.56 -14.16,9.86 -16.14,15.67 -28.43,22.35 -8.2,4.46 -3.44,1.79 -6.95,4.36 -11.78,8.61 -26.18,11.95 -41.12,20.64 -0.8,0.47 -7.24,3.79 -7.44,3.93 -15.69,10.16 -4.16,9.77 -25.82,16.39l-15.29 8.73c-10.09,9.04 -27.92,6.76 -41.04,12.8 -29.64,13.63 -42.83,7.31 -67.38,16.92 -12.6,4.93 -18.46,4.7 -33.22,6.62 -33.41,4.34 -13.87,11.83 -69.86,14.34 -28.37,1.27 -15.79,2.37 -33.51,10.75 -28.77,13.6 -84.35,2.78 -116.27,12 -32.48,9.38 -246.58,12.18 -289.39,14.27 -52.03,2.53 -112.81,-1.05 -164.27,-5.06 -7.57,-0.59 -27.82,-2.9 -33.79,-5.33 -9.77,-3.97 -0.96,-3.55 -14.66,-7.39 -12.33,-3.45 -27.52,0.21 -36.44,-6.87 -24.67,-19.58 -41.65,-24.89 -53.04,-34.8 -0.54,-0.48 -1.35,-1.22 -1.88,-1.72l-12.74 -16.08c-0.45,-0.69 -1,-1.61 -1.44,-2.3l-10.72 -15.37c-16.71,-20.66 -31.17,-56.64 -39.67,-83.91 -3.25,-10.4 -4.37,-27.33 -6.38,-37.61 -12.73,-64.94 -14.59,-85.88 -16.7,-156.18 -0.66,-22.06 -2.5,-55.34 -4.72,-79.84 -8.9,-98.23 -2.52,-402.49 -2.46,-513.17 0.13,-226.39 3.88,-448.83 3.47,-677.34 -0.08,-46.21 4.51,-125.9 -0.62,-168.09 -3.55,-29.17 -48.14,-48.01 -72.61,-55.34 -24.33,-7.29 -10.37,-4.59 -27.64,-16.03 -35.61,-23.58 -41.44,-45.04 -30.21,-89.96 3.64,-14.54 9.62,-13.65 18.32,-24.68 18.51,-23.46 90.91,-52.27 117.94,-54.68zm-527.48 361.18l-0 25.63c0,136.09 2.87,277.91 11.69,406.4 5.99,166.54 -8.79,441.58 3.86,579.58 14.23,155.19 12.23,341.12 11.7,504.17 -0.24,74.66 2.18,50.01 -13.45,108.15 -2.32,8.62 -21.95,29.76 -29.25,38.7 -13.64,16.7 -20.61,14.56 -38.82,26.99 -53.3,36.35 -130.65,26.02 -180.14,-17.7l-25.52 -36.75c-22.21,-56.2 -13.43,-153.22 -13.35,-218.24l-4.2 -362.47c-0.87,-82.69 -14.31,-168.63 -14.52,-270.94 -0.31,-156.4 5.02,-689.19 -7.66,-768.3 -12.61,-78.63 -8.02,-211.01 -7.62,-300.8 0.23,-52.26 -5.76,-171.47 1.72,-215.95l20.12 -64.24c0.42,-0.72 1.1,-1.53 1.54,-2.22 11.13,-17.9 9.4,-39.7 64.05,-68.1 49.3,-25.62 86.69,-11.74 137,-0.71 6.33,1.39 15.14,3.22 20.57,5.86l18.98 10.62c30.43,18.47 50.03,79.94 51.77,111.43 3.46,62.56 -2.59,276.58 -6.46,318.74 -5.07,55.16 -1.99,132.88 -1.99,190.16zm-1104.87 329.52c0.18,-102.79 -3.58,-198.91 -10.91,-295.92 -7.02,-92.83 -4.9,-207.38 -5.59,-304.53 -0.61,-87.26 -6.76,-222.21 19.07,-291.27 3.25,-8.68 21.4,-35.02 29.35,-48.35 7.11,-11.91 3.29,-4.74 14.55,-14.85 7.49,-6.72 4.69,-7.23 15.77,-11.93 46.52,-19.74 18.11,-16.34 78.49,-16.61 25.35,-0.11 51.56,0.45 76.89,1.63 0.63,0.89 3.59,6.24 4.16,6.8 9,8.79 16.92,7.49 28.79,8.09 1.68,10.09 7.94,12.02 22.15,26.1 7.4,7.32 4.49,4.62 10.74,14.22l11.76 11.29c3.18,57.91 1.93,28.12 10.81,61.16 11.14,41.45 -6.62,337.08 -6.82,341.59 -8.5,187.14 5.47,362.54 6.9,545.53l10.78 699.28c0.96,55.25 6.88,112.51 7.45,168.44l-5.03 351.49c-2.02,16.55 -4.05,22.27 -8,34.56 -17.66,55.04 -88.9,100.78 -155.89,100.1 -36.96,-0.38 -31.91,-3.17 -57.14,-15.42 -15.74,-7.65 -31.66,-19.84 -42.1,-31.05 -31.55,-33.89 -39.34,-60.69 -39.34,-106.5 -0.03,-196.93 4.16,-401.74 -13.77,-594.17 -4.51,-48.49 -3.03,-113.75 -3.28,-163.72l0.2 -475.97zm-635.46 -2954.66c-5.13,-14.18 -13.9,-8.7 -28.61,-15.33l-95.31 -36.49c-17.59,-9.33 -17.92,-3.3 -35.47,-8.47 -14.43,-4.25 -11.01,-9.94 -31.46,-12.47 -23.06,-2.85 -17.08,0.68 -35.5,-8.44 -19.2,-9.5 -35.17,-3.04 -57.28,-12.29 -24.56,-10.28 -66.1,-13.06 -89.25,-20.59 -10.63,-3.46 -24.48,-3.2 -38.71,-5.23 -14.78,-2.11 -28.53,-0.03 -42.02,-1.92 -39.52,-5.52 -17.85,-14.25 -121.22,-14.25 -90.3,0 -215.09,-6.08 -303.5,4.05 -10.47,1.2 -15.59,4.56 -25.41,7.55 -24.39,7.42 -58.21,3.39 -83.47,8.06 -14.61,2.7 -15.95,6.16 -24.57,8.38 -16.97,4.38 -40.19,2.71 -55.13,7.12 -18.5,5.47 -28.56,10.78 -49.86,12.38 -28.12,2.11 -19.02,11.66 -47.72,14.52 -30.74,3.06 -28.88,9.23 -48.43,13.81 -11.64,2.73 -13.61,0.99 -24.26,5.03 -12.35,4.7 -9.56,7.06 -22.78,10.17 -8.87,2.08 -15.57,1.45 -24.27,5.02l-34.72 12.87c-0.73,0.2 -4.95,1.56 -5.54,1.79 -0.81,0.32 -1.74,0.78 -2.52,1.14 -14.56,6.87 -4.1,5.79 -25.47,11.14 -15.41,3.85 -9.28,1.15 -21.22,8.07 -14.42,8.36 -20.93,6.08 -36.13,15.13l-102.02 48.1c-0.72,0.4 -1.65,0.9 -2.4,1.26l-260.02 153.71c-0.64,0.45 -1.58,0.99 -2.23,1.43 -17.52,11.62 -40.67,24.83 -56.09,39.1l-99.54 79.87c-0.6,0.48 -1.48,1.11 -2.09,1.57l-111.65 97.05c-0.54,0.52 -1.29,1.31 -1.82,1.84l-31.48 30.76c-13.93,13.98 -30.83,25.63 -42.83,41.38 -5.94,7.79 -3.87,-3.23 -5.23,13.08 -16.08,1.34 -14.94,9.73 -29.36,25.56 -5.73,6.28 -6.16,6.21 -12.78,12.85 -3.77,3.78 -2.89,3.08 -7.28,7.37 -44.32,43.37 -94.73,114.94 -131.19,165.37l-22.34 32.58c-0.46,0.61 -1.22,1.38 -1.69,1.97l-126.48 214.03c-3.02,6.41 -3.2,12.19 -6.4,19.23l-19.79 38.79c-8.11,12.14 -8.32,24.99 -16.68,38.24 -8.01,12.7 -5.57,18.21 -13,30.94l-11.12 32.82c-4.48,11.06 -5.17,5.56 -9.3,16.32 -4.19,10.92 -1.12,13.06 -5.32,23.97 -4.56,11.82 -6.04,5.5 -10.3,19 -7.2,22.87 -2.49,20.04 -12.99,41.93l-5.38 23.91c-4.44,25.47 -9.88,17.41 -14.28,44.3 -4.11,25.15 -5.6,21.44 -12.13,42.79 -5.25,17.17 -2.42,36 -8.12,50.46 -6.65,16.85 -10.3,19.31 -11.01,43.91 -0.86,29.64 -5.47,26.39 -10.84,47.75 -6.71,26.72 -2.61,60.07 -13.18,100.32 -8.2,31.23 -8.71,223.83 -8.99,276.65 -0.13,25.68 3.56,36.56 3.83,58.41 0.25,19.76 -1.48,42.95 0,62.24 1.93,25.22 9.58,25.38 3.52,51.4 -8.64,4.15 -9.92,2.5 -19.7,5.93l-71.05 31.46c-7.44,3.72 -3.94,2.99 -8.66,5.99l-88.36 43.45c-8.34,5.3 2.42,-0.03 -8.96,5.69l-255.21 151.19c-7.65,4.97 -11.14,5.56 -18.79,10.5 -26.54,17.15 -49.66,38.61 -77.02,54.79l-16.74 12.55c-4.28,3.38 -4.42,2.97 -8.62,6.02 -5.38,3.9 -4.07,3.35 -8.22,6.43l-160.86 128.39c-0.58,0.49 -1.46,1.13 -2.05,1.62l-185.33 173.47c-0.52,0.54 -1.25,1.34 -1.77,1.9 -10.16,10.9 -17.97,21.51 -27.39,31.19l-7.45 7.2c-1.96,2.02 -4.7,5.18 -6.96,7.68l-82.31 93.43c-20.12,26.75 -44.01,52.25 -62.4,80.39l-9.45 12.52c-0.48,0.58 -1.23,1.36 -1.72,1.95l-26.97 35.27c-5.28,7.59 -6.27,11.23 -11.04,18.24l-13.91 19.04c-0.43,0.66 -0.97,1.6 -1.41,2.24l-66.72 101.7c-5.28,8.01 -5.6,12.19 -10.1,19.2l-42.43 74.73c-7.12,15.85 -2.88,2.46 -11.5,17.79l-66.29 138.75c-4.93,11.44 -5.61,6.33 -10.29,19l-24.68 63.19c-7.14,12.2 -8.44,27.68 -15.07,39.85 -7.97,14.62 -8.21,29.11 -16.05,42.53 -7.37,12.61 -7.69,30.31 -14.85,43.74 -7.26,13.62 -6.5,31.56 -13.3,45.28 -13.38,27.03 -8.97,37.35 -21.09,66.79 -6.8,16.53 -4.65,34.56 -10.1,48.48 -9.43,24.12 -8.03,50.24 -17.01,70.86 -7.3,16.74 -8.09,28 -8.56,50.02 -0.56,25.77 -6.77,25.91 -11.55,47.04 -3.46,15.31 -1.82,35.27 -3.29,55.29 -1.32,18.03 -7.45,32.68 -10.44,48.14 -6.84,35.35 -0.64,74.41 -6.18,110.98 -2.87,18.99 0.01,37.36 -2.46,56.12 -6.87,52.2 -6.4,93.19 -6.4,147.37 0,42.72 7.65,74.42 7.4,113.42 -0.23,36.77 1.24,135.51 6.54,172.87 7.14,50.39 10.05,53.21 11.56,109.26 0.59,21.94 5.39,36.65 10.33,51.91 7.75,23.96 2.34,52.12 8.92,78.96 2.01,8.21 6.56,16.7 8.55,24.39 4.72,18.21 1.47,45.77 8.58,64.64 9.38,24.9 5.8,37.63 12.32,64.57 2.9,11.97 5.74,10.49 8.83,20.45 5.81,18.71 1.66,35.6 9.92,52.32 6.61,13.38 7.29,31.36 11.78,46.8 4.32,14.83 4.65,6.92 9.28,20.01 3.96,11.18 1.66,15.35 4.61,28.34 3.63,15.95 5.01,10.2 9.4,19.9 6.31,13.95 4.89,28.74 13.31,45.27 7.64,14.98 2.69,9.94 6.61,26.34 4.2,17.61 4.61,9.26 9.81,19.49l22.59 68.94c4.89,12.2 5.29,4.91 10.53,18.76 3.09,8.17 2.15,14.77 5.83,23.46 5.57,13.15 -1,-1.54 5.69,8.96 5.31,8.34 2.16,1.35 5.12,9.53 5.65,15.59 0.61,8.66 9.19,23.76 6.91,12.15 3.4,7.86 8.36,20.93l24.26 48.96c3.61,6.28 2.5,5.12 5.61,12.7l25.02 48.2c9.96,18.97 15.19,34.09 26.82,50.07l19.93 34.99c0.42,0.67 0.96,1.6 1.36,2.3 2.5,4.34 1.85,4.69 4.74,9.91l10.27 15.36c0.56,0.94 1.98,3.84 2.53,4.79l189.31 257.37c0.49,0.57 1.23,1.36 1.73,1.93l66.55 72.58c18.46,18.46 41.1,44.39 61.04,59.78 14.11,10.89 18.28,17.11 30.56,28.03l46.14 38.07c0.57,0.5 1.34,1.26 1.89,1.77l69.31 55.17c0.62,0.46 1.55,1.03 2.15,1.5 0.61,0.47 1.47,1.12 2.05,1.61l82.97 59.81c0.94,0.57 3.6,2.22 4.5,2.82l135.7 83.98c16.66,10.88 34.42,15.64 50.54,26.34l67.62 34.9c4.44,2.11 8.89,3.08 13.44,4.86l30.14 13.79c23.3,6.85 -13.46,-5.44 5.8,1.53 11.85,4.29 9.01,7.8 24.16,12.45 24.61,7.55 14.26,8.3 45.03,17.21 22.66,6.56 3.65,3.17 19.09,10.2 8.59,3.91 14.98,2.96 23.21,6.08 16.23,6.15 4.51,6.18 21.76,11.19l43.53 15.04c30.12,8.42 36.26,14.06 46.05,16.19 9.67,2.1 17.15,0.99 25.2,4.09 10.5,4.04 3.11,5.76 18.88,10.42 11.2,3.3 15.6,0.68 26.01,3.28 8.87,2.22 10.26,6.53 22.44,10.51 19.71,6.43 25.12,-0.16 47.64,10.94 19.4,9.58 31.13,4.72 51.66,10.58 14.51,4.14 5.84,4.12 20.78,8.51 16.56,4.88 32.38,2.02 51.48,7.1 8.29,2.21 12.35,6.79 24.07,8.89 31.2,5.6 42.85,1.83 75.44,12.42 10.76,3.5 14.57,2.35 28.71,4.24 14.68,1.95 38.08,0.84 55.21,3.37 18.01,2.66 28.13,8.83 52.08,10.16 172.71,9.6 421.42,3.64 600.48,3.64 161.1,0 322.2,0 483.29,0 163.8,0 318.71,3.66 479.63,3.66 322.2,0 644.39,0 966.58,0 641.99,0 1286.88,7.32 1929.51,7.32l1933.16 0c19.49,0 39.3,-0.38 58.73,-0.14 21.86,0.27 32.73,3.96 58.41,3.83 43.48,-0.22 77.02,-3.97 117.21,-3.67 43.8,0.33 68.31,-11.08 109.69,-11.13l83.81 -4.06c10.73,-1.49 15.57,-4.11 26.01,-6.94 25.34,-6.89 51.95,-3.69 80.58,-7.3 17.57,-2.21 11.43,-3.73 24.62,-8.33 7.34,-2.56 43.81,-4.88 52.76,-5.82 24.08,-2.55 24.7,-8.5 50.1,-12.14l102.43 -18.4c18.88,-3.02 22.79,-11.99 48.54,-13.7 32.18,-2.14 26.74,-9.84 48.43,-13.81l45.7 -12.87c15.2,-5.69 33.97,-5.49 49.37,-12.88l44.85 -13.73c8.94,-4.77 -3.91,-0.25 9.73,-4.92 14.62,-5.01 25.42,-4.42 36.99,-10.61 18.98,-10.17 27.11,-4.9 43.87,-14.72 12.9,-7.55 32.19,-10.72 44.71,-17.54 16.29,-8.87 7.61,0.74 42.12,-16.46l105.91 -44.21c14.38,-9.08 10.78,-3.23 24.04,-8.91 9.93,-4.26 4.98,-5.53 18.5,-10.78 13.23,-5.15 8.29,-0.58 20.82,-8.47l33.54 -17.72c5.75,-3.46 0.85,-1.02 7.23,-3.75l39.61 -18.98c13.13,-5.63 7.78,-5.31 18.21,-11.08l21.7 -11.26c0.64,-0.43 1.46,-1.13 2.11,-1.55 0.66,-0.43 1.5,-1.09 2.17,-1.5l51.24 -29.31c9.89,-5.99 11.77,-4.13 21.62,-11.33l53.66 -34.21c8.15,-5.43 11.69,-6.47 20.41,-12.54l43.68 -29.54c4.77,-3.6 1.81,-2.02 8.17,-6.47 3.3,-2.31 5.99,-3.62 8.96,-5.68l162.05 -127.19c0.58,-0.48 1.43,-1.16 2.03,-1.63 0.6,-0.48 1.49,-1.09 2.1,-1.56l90.45 -81.64c5.78,-5.72 9.83,-9.81 16.51,-16.44l220.75 -262.54c3.45,-5.32 2.22,-3.93 6.24,-8.41 5.09,-5.66 0.32,1.66 7.25,-7.39l22.84 -35.74c3.52,-5.07 1.33,-0.51 6.49,-8.16 4.48,-6.62 3.32,-6.57 6.24,-12.06l39.89 -62.63c3.56,-5.95 2.7,-5.92 6.04,-12.27l33.01 -58.52c0.41,-0.67 1.07,-1.51 1.5,-2.16l19.69 -35.23c4.03,-6.95 2.66,-5.41 4.49,-10.15l21.57 -44.33c18.42,-32.15 35.01,-80.61 50.6,-110.5 5.39,-10.34 3.34,-13.22 6.66,-22.63 2.89,-8.19 -0.12,-1.22 5.17,-9.47 11.16,-17.42 32.66,-83.95 39.74,-110.37 0.32,-1.18 1.29,-4.53 1.71,-5.61l9.01 -16.61c2.38,-6.77 1.25,-5.15 2.42,-12.23 3.01,-18.28 10.68,-25.54 14.57,-44.01 7.47,-35.4 7.25,-23.61 14.36,-47.88 2.58,-8.78 1.94,-14.05 3.56,-25.73 2.78,-20.1 13.25,-22.71 14.43,-47.81 1.7,-36.09 6.95,-19.92 12.82,-45.76 5.83,-25.66 -1.27,-28.38 9.24,-53 10.33,-24.21 6,-54.05 17.35,-85.16 8.39,-22.98 6.31,-46.21 8.25,-68.64 2.21,-25.69 15.31,-51.12 14.71,-106.11 -0.35,-32.48 2.13,-29.38 8.22,-54.02 13.16,-53.18 6.39,-327.88 6.39,-392.69 0,-33.14 -0.68,-70.9 -6.85,-99.32 -2.73,-12.56 -6.09,-18.53 -7.41,-29.21 -1.26,-10.26 0.14,-22.12 -0.38,-32.57 -2.1,-42.47 -11.66,-59.09 -15.36,-94.48 -1.74,-16.65 -4.45,-43.47 -10.79,-58.77 -8.84,-21.31 -3.4,-43.71 -11.04,-62.19 -4,-9.68 -7.65,-12.98 -9.56,-27.06 -8.91,-65.79 -10.7,-29.89 -15.05,-58.18 -6.37,-41.44 -11.69,-33.95 -15.04,-54.53l-26.74 -83.1c-4.32,-9.13 -3.99,-19.77 -7.35,-29.26 -4.73,-13.34 -6.98,-5.38 -12.04,-24.57 -5.29,-20.05 0,-10.39 -9.57,-27.04 -8.75,-15.21 -3.46,-13.51 -9.29,-27.33 -6.84,-16.21 -6.77,-3.06 -11.42,-21.52 -4.99,-19.77 -9.72,-19.87 -15.96,-38.97 -1.49,-4.57 -1.73,-7.55 -4.81,-13.5l-24.09 -49.13c-1.46,-3.47 -2.75,-9.12 -4.85,-13.46 -10.58,-21.87 -17.28,-27.31 -26.85,-50.03 -0.35,-0.83 -0.61,-1.87 -0.95,-2.71l-199.23 -313.36c-3.99,-5.8 -11.96,-15.31 -16.31,-20.3 -3.22,-3.69 -5.89,-6.07 -8.72,-9.59l-101.07 -118.61c-0.51,-0.55 -1.3,-1.3 -1.8,-1.86l-16.46 -20.15c-0.53,-0.54 -1.34,-1.26 -1.86,-1.8l-20.58 -23.36c-24.48,-31.89 -58.77,-62.4 -89.19,-90.21l-19.52 -17.09c-7.15,-6.18 -12.83,-11.43 -19.3,-17.31 -0.56,-0.51 -1.36,-1.23 -1.91,-1.75l-7.15 -7.49c-7.8,-5.99 3.39,-3.89 -13.05,-5.26 -1.44,-13.16 -3.53,-10.27 -27.46,-31.12l-33.19 -29.06c-9.7,-7.78 -14.47,-12.44 -24,-19.93l-22.84 -17.44c-18.03,-15.97 -102.53,-84.3 -125.88,-97.46l-13.3 -8.67c-4.77,-4 -0.47,-0.93 -5.79,-5.19 -39.25,-31.54 -84.71,-54.84 -125.77,-82.93 -0.64,-0.44 -1.46,-1.13 -2.08,-1.58 -0.61,-0.45 -1.4,-1.19 -2.01,-1.66 -5.35,-4.1 -0.11,-0.57 -6.13,-4.85 -2.43,-1.73 -4.28,-2.67 -6.7,-4.29 -11.22,-7.48 -11.22,-7.9 -25.17,-15.1l-38.45 -23.79c-8.39,-5.37 -6.08,-3.07 -14.49,-7.48l-124.66 -69.39c-5.75,-3.45 -0.87,-1.02 -7.25,-3.73 -7.22,-3.07 -5.38,-0.88 -13.32,-4.99l-40.16 -22.08c-7.11,-4.05 -9.35,-3.76 -15.74,-6.23l-35.35 -15.91c-6.33,-2.3 -4.34,-1.86 -7.33,-3.65l-58.88 -25.33c-16,-4.56 -12.82,-9.31 -25.89,-18.05 5.88,-12.24 6.84,-29.58 7.23,-47.68 0.58,-26.68 7.31,-21.19 11.78,-46.8 3.25,-18.63 1.43,-33.69 3.07,-55.52 1.26,-16.72 7.94,-31.95 10.35,-48.23 8.1,-54.6 1.34,-106.19 9.84,-162.24 9.6,-63.31 5.33,-131.61 5.33,-196.04 0,-54.37 -11.12,-96.84 -10.99,-153.77 0.17,-71.05 -13.02,-92.17 -14.53,-153.89 -0.8,-32.35 -11.46,-48.34 -14.37,-69.84 -4.97,-36.78 0.1,-40.44 -11.49,-72.72 -6.78,-18.88 -6.08,-48.6 -14.48,-69.73 -3.46,-8.7 -5.67,-23.91 -6.69,-33.58 -3.55,-33.64 -9.19,-24.33 -15.82,-68.39 -2.19,-14.57 -6.86,-15.55 -11.14,-29.13 -3.71,-11.76 -1.41,-22.44 -5.51,-34.76 -5.07,-15.21 -8.59,-11.51 -12.19,-31.75 -3.94,-22.15 -11.54,-26.43 -15.16,-47.07l-27.78 -78.4c-5.34,-14.3 -2.47,-16.15 -10.25,-30.02 -0.39,-0.7 -1.04,-1.53 -1.43,-2.24 -0.39,-0.7 -0.99,-1.57 -1.36,-2.3l-21.17 -55.72c-4.57,-17.55 -8.16,-15.17 -13.49,-30.44l-17.77 -44.48c-6.68,-19.75 -20.58,-35.52 -28.42,-55.79l-30.49 -61.04c-1.56,-3.68 -1.04,-3.9 -2.79,-8.19 -8.74,-21.49 -25.27,-45.89 -37.45,-65.07 -6.11,-9.63 -2.32,-3.9 -7.02,-14.94l-115.39 -181.18c-3.06,-4.49 -4.19,-7.02 -7.01,-11.29l-28.03 -37.88c-2.92,-3.83 -4.16,-6.17 -7.63,-10.68l-33.39 -43.49c-0.49,-0.58 -1.22,-1.38 -1.7,-1.96l-106.18 -128.14c-41.72,-42.18 -78.77,-89.62 -123.01,-129.62l-157.17 -143.05c-1.12,-0.98 -3.17,-2.91 -5.81,-5.17 -5.52,-4.73 -6.52,-5.34 -11.86,-10.11l-18.67 -14.28c-0.6,-0.47 -1.41,-1.18 -2.01,-1.66 -0.59,-0.48 -1.37,-1.22 -1.95,-1.71l-119.47 -92.88c-4.64,-3.53 -5.94,-4.32 -10.8,-7.51l-81.49 -57.64c-4.5,-3.07 -2.21,-1.26 -6.96,-4.03 -6.41,-3.74 -5.94,-3.52 -11.28,-7.02l-211.91 -132.26c-0.72,-0.38 -1.64,-0.91 -2.33,-1.33l-18.24 -11.05c-16.39,-6.45 -2.05,1.76 -14.72,-7.24l-199.34 -104.55c-0.35,-0.21 -5.18,-3.82 -6.43,-4.55 -10.87,-6.36 -5.18,-2.38 -15.87,-6.1l-78.84 -34.66c-3.82,-1.95 -1.97,-4.18 -19.49,-9.79l-84.33 -32.84c-0.9,-0.29 -1.89,-0.58 -2.74,-0.92 -0.81,-0.32 -1.73,-0.8 -2.49,-1.17l-30.82 -13.11c-7.4,-2.23 -8.67,-3.69 -15.14,-6.83l-62.59 -21.62c-16.76,-3.41 -29.38,-12.58 -46.43,-15.81 -19.71,-3.73 -26.38,-11.74 -47.06,-15.18 -26.15,-4.34 -15.82,-4.21 -32.45,-11.49 -14.21,-6.22 -24.65,-2.24 -49.06,-13.18 -18.51,-8.31 -33.86,-4.42 -50.38,-11.86 -19.21,-8.64 -9.58,-7.32 -35.39,-8.55 -27.48,-1.31 -34.38,-11.49 -68.61,-15.6l-33.46 -6.82c-21.64,-9.11 -46.36,-6.24 -72.85,-11.36 -11.37,-2.19 -16.29,-7.48 -33.96,-9.98 -22.11,-3.13 -57.87,-2.03 -76.51,-7.7 -44.48,-13.54 -108.84,-9.23 -154.09,-14.33 -85.87,-9.67 -168.94,-7.32 -256.29,-7.32 -32.7,0 -62.92,9.28 -95.17,11 -38.17,2.04 -66.42,-0.71 -102.02,4.15 -16.13,2.21 -23.71,9.07 -40.84,10.42 -19.76,1.55 -36.01,0.18 -52.37,2.55l-43.71 11.21c-13.98,2.7 -35.87,3.14 -50.18,4.74 -18.24,2.05 -20.8,8.29 -40.03,11.22 -59.79,9.12 -29.97,5.93 -65.77,14.78 -8.93,2.21 -14.19,2.21 -26.17,3.12 -24.83,1.89 -21.01,8.91 -41.71,13.21 -24.23,5.03 -20.25,-2.09 -41.61,9.64 -19.8,10.87 -25.28,2.98 -44.48,10.44l-42.27 12.65c-19.93,4.38 -11.93,8.13 -28.04,12.24 -42.85,10.93 -33.96,11.57 -49.96,15.94l-61.35 19.2c-13.35,4.45 -6.78,5.04 -19.6,9.69 -7.41,2.69 -12.67,2.09 -20.75,4.88 -13.84,4.78 -8.43,6.82 -18.46,10.83 -9.14,3.66 -10.78,1.05 -20.8,4.83l-311.82 145.84c-23.89,13.16 -49.56,23.26 -71.97,37.87l-78.17 46.31c-0.96,0.54 -3.63,2.19 -4.55,2.77 -24.79,15.6 -51.37,28.14 -75.17,45.65l-40.43 25.47c-9.48,5.4 -7.01,4.64 -15.4,10.23l-79.11 52.69c-0.64,0.44 -1.53,1.05 -2.16,1.5l-224.46 167.3c-5.64,4.98 -1.86,2.3 -7.4,7.24l-14.36 11.27c-0.58,0.49 -1.36,1.24 -1.93,1.73l-282.62 255.59c-2.35,2.36 -3.77,3.86 -5.44,5.54l-27.49 27.43c-0.53,0.54 -1.28,1.31 -1.82,1.85 -0.53,0.53 -1.31,1.29 -1.84,1.82l-54.06 55.78c-0.53,0.54 -1.3,1.3 -1.82,1.84l-22.72 24.87c-0.51,0.55 -1.27,1.33 -1.77,1.89l-15.25 17.7c-14.36,16.57 -6.98,21.03 -33.89,21.03z"/>
  <path class="fil1" d="M16486.83 3994.73l159.49 8.93 90.07 23.43c21.1,8.64 2.12,-4.5 43.49,15.09 12.17,5.77 10,1.97 23.99,5.3 20.79,4.95 19.33,10.43 30.52,13.42 15.12,4.03 17.3,9.17 29.22,14.72l115.95 81.76c6.65,5.44 1.92,1.3 7.64,7.01l28.36 37.54c0.45,0.64 1,1.57 1.44,2.23l21.02 37.56c21.62,40.8 6.75,20.61 15.36,43.22 7.29,19.14 12.29,20.82 12.05,46.53 -0.22,24.01 3.1,31.47 3.78,51.31l-7.77 120.62c-4.24,14.66 -8.95,17.37 -10.55,33.39 -1.06,10.57 -0.87,15.73 -3.27,22.36 -4.41,12.16 -5.07,6.24 -9.91,19.38 -2.75,7.47 -3.26,15.84 -6.66,22.63l-14.68 29.26c-9.76,19.57 -38.96,53.05 -40.35,54.85l-2.98 4.34c-0.45,0.63 -1.01,1.57 -1.47,2.19 -0.72,0.99 -10.69,18.11 -22.41,28.84 -27.39,25.06 -59.94,50.73 -92.17,68.93l-27.32 12.95c-8.06,2.55 -4.24,0.78 -10.52,4.13l-30.33 13.6c-19.47,8.32 1.22,4.54 -18.12,11.17 -8.42,2.88 -15.37,1.41 -25.32,3.97 -10.42,2.68 -13.08,5.54 -20.91,8.38 -17.99,6.52 -31.07,1.37 -49.49,9.09 -22.73,9.53 -13.13,9.78 -45.36,9.56 -48.55,-0.34 -70.69,14.21 -98.66,14.84 -24.62,0.56 -200.24,4.33 -218.45,-5.23 -29.77,-15.62 -20.79,-1.68 -59.33,-24.88l-58.89 -47.29c-15.45,-16.56 -47.95,-76.68 -51.75,-98.37 -7.84,-44.84 -16.79,-38.82 -18.26,-98.91 -0.58,-23.63 -3.11,-35.7 -3.77,-54.98 -0.79,-23.13 3.75,-29.71 4.01,-51.15 0.24,-19.44 -0.15,-39.33 -0.23,-58.81 -0.1,-23.43 3.63,-29.88 3.89,-51.03 0.68,-55.48 -5.86,-116.08 1.92,-170.16 18.78,-130.58 -13.19,-179.82 45.43,-185.23 23.31,-2.14 26.88,-9.88 44.88,-13.7 18.98,-4.03 31.54,0.26 52.34,-6.24 21,-6.57 16.81,-9.59 45.58,-9.34 24.92,0.21 33.23,-3.46 54.86,-3.72 41.44,-0.5 71.92,-3.52 113.64,-3.52zm292.91 -1032.48c29.31,0 106.75,-3.41 129.78,5.69 5.17,2.04 7.45,4.27 14.61,7.35 21.54,9.28 20.58,6.79 42.87,23.04 8.52,6.21 15.88,12.29 23.08,20.85 8.4,9.98 11.56,14.01 18.92,25.01l15.8 28.14c8.81,15.14 22.21,66.98 22.21,69.32l0 87.87c0,12.21 -6.87,19.03 -9.64,34.3 -2.5,13.72 -0.71,26.85 -2.72,41.22l-16.44 60.45c-2.13,8.8 1.23,-2.02 -1.57,5.76 -4.15,11.55 -5.58,6.2 -10.35,18.94 -5.42,14.47 1.25,9.92 -9.93,26.69 -0.43,0.64 -1.14,1.44 -1.57,2.09l-48.07 72.76c-10.45,16.81 -11.68,20.2 -29.28,36.62l-128.84 98.16c-17.64,8.9 -7.31,7.39 -28.56,15.37l-17.02 8.61c-7.28,4.51 5.28,-1.01 -6.89,4.09 -6.25,2.61 -2.16,1.05 -8.58,2.4 -10.58,2.22 -8.26,-0.38 -18.4,3.56 -16.82,6.53 -4.96,7.85 -31.46,12.47 -22.85,3.98 -18.45,9.65 -30.88,13.06 -12,3.3 -27.55,1.5 -41.95,5.65 -15.79,4.55 -11.7,7.91 -33.68,10.25 -58.92,6.28 -61.24,16.72 -120.86,18.27 -69.71,1.81 -92.72,15 -164.82,14.59 -30.55,-0.18 -61.11,-0.01 -91.67,-0.13 -109.54,-0.45 -84.12,51.82 -84.12,-172l-0.13 -135.59c0.03,-21.18 3.34,-24.95 3.9,-43.69 1.94,-64.87 -3.86,-225.11 -0.19,-271.13 1.47,-18.47 7.87,-22.5 30.34,-35.56 11.22,-6.53 3.99,-3.01 19.4,-6.23 21.41,-4.46 18.68,-8.29 31.27,-12.67 21.23,-7.37 2.89,5.17 51.72,-14.18 20.91,-8.28 27.11,1.12 57.18,-12.38 24.29,-10.9 50.53,-3.55 77.41,-14.12 37.87,-14.9 38.04,-1.09 78.27,-13.27 52.62,-15.92 22.17,-5.17 76.24,-11.63 23.27,-2.78 17.98,-1.59 35.78,-8.15 16.68,-6.15 23.62,-1.96 43.51,-4.09 51.11,-5.46 26.15,1.63 79.66,-11.87 18.05,-4.55 63.63,-5.89 85.64,-5.89zm-838.44 -248.97c-39.66,0 -39.88,1.84 -74.15,13.72 -18.48,6.41 -10.42,0.89 -23.47,13.15 -15.6,14.66 -15.26,23.39 -18.15,29.45 -10.82,22.69 -9.82,20.2 -12.19,50.05 -1.73,21.85 -0.19,50.46 -0.19,73.04 -9.92,2.31 -20.53,3.55 -29.1,7.52 -25.47,11.8 -55.24,19.36 -75.15,34.68 -35.13,27.03 -60.51,41.45 -60.51,104.25 0,24.75 25.85,51.02 45.48,60.7 10.04,4.95 2.88,0.14 11.83,6.47 14.69,10.38 0.92,4.39 19.26,10.04l42.1 20.14c3.47,2.54 1.05,1.83 7.71,6.94 34.3,26.29 23.74,16.65 23.74,119.05 0,159.62 -5.23,1449.98 2.11,1499.02l12.41 115.74c0.17,31.86 11.92,48.06 15.4,76.13 2.69,21.61 10.12,26.03 15.55,46.69l30.16 65.03c14.57,26.08 38.1,49.6 65.6,62.54 0.78,0.37 1.78,0.73 2.59,1.07 5.16,2.17 22.12,13.16 38.22,16.7 20.3,4.47 26.96,11.93 48.22,14.02 49.72,4.89 41.07,14.51 110.25,14.24 20.54,-0.08 44.92,4.33 57.91,3.26 18.34,-1.52 35.1,-3.26 59.24,-3.25 58.4,0.03 122.31,6.77 179.4,-7.33 18.02,-4.45 93.77,-6.61 120.95,-7.19 23.93,-0.51 34.01,-6.89 51.56,-10.68 40.45,-8.73 53.48,1.1 109.29,-15.2 17.73,-5.18 35.78,-1.92 54.34,-7.9l51.14 -11.1c15.28,-2.47 19.21,-10.06 46.94,-15.3 18.95,-3.58 12.38,-4.12 23.68,-9.27 15.41,-7.02 34.19,-7.85 47.65,-14.59l41.03 -17.56c0.75,-0.38 1.67,-0.86 2.45,-1.21l43.26 -18.98c33.89,-11.7 85.23,-47.46 117.02,-69.7l38.27 -31.29c0.56,-0.51 1.38,-1.22 1.94,-1.73l35.74 -33.83c6.83,-7.68 4.16,4.53 5.59,-12.72 15.2,-1.27 18.91,-11.53 28.25,-23.01l11.93 -13.7c0.47,-0.6 1.12,-1.46 1.58,-2.08l57.74 -88.71c7.75,-12.26 7.7,-22.13 14.54,-33.05l13.06 -30.88c9.27,-14.64 21.86,-48.42 24.59,-66.94l10.8 -36.8c2.83,-9.47 4.28,-28.8 5.58,-38.35 6.27,-46.08 15.39,-13.36 14.98,-124.15 -0.11,-30.15 7.33,-54.48 7.33,-84.2 0,-23.3 -5.73,-32.16 -7.18,-51.4 -1.42,-18.87 0.35,-42.79 -2.56,-56.02 -4.8,-21.92 -2.72,-7.14 -8.89,-20.41 -0.36,-0.77 -0.86,-1.66 -1.18,-2.48 -0.87,-2.26 -2.66,-28.83 -11.02,-43.9l-24.12 -52.77c-6.34,-16.03 -20.81,-30.03 -28.54,-44.69 -7.01,-13.32 -1.95,-6.95 -11.28,-18.01 -0.49,-0.58 -1.25,-1.34 -1.73,-1.92l-18.36 -21.92c-17.14,-17.23 -31.47,-35.97 -50.56,-51.95 -0.58,-0.49 -1.45,-1.14 -2.03,-1.63l-15.2 -14.09c-4.49,-3.97 -10.76,-8.75 -16.16,-13.12l-31.17 -20.09c-27.37,-17.33 -50.98,-35.29 -81.19,-46.95l-18.98 -10.31c-9.14,-4.08 -14.54,-2.93 -22.85,-6.44 -11.01,-4.66 -3.12,-5.21 -19.07,-10.22 -12.11,-3.81 -12.26,-0.84 -23.17,-6.11 -9.43,-4.55 -6.55,-7.14 -19.43,-9.86 -16.04,-3.39 -42.96,1.63 -19.71,-17.5 11.74,-9.66 35.6,-16.1 51.51,-25.79 0.93,-0.57 3.32,-2.5 4.18,-3.14l44.4 -28.83c23.06,-15.88 79.84,-71.16 96.93,-89.8l56.72 -71.43c5.57,-8.27 1.5,-2.93 5.13,-9.51 0.4,-0.72 0.83,-1.71 1.25,-2.42l16.05 -27.89c6.25,-11.32 1.37,-1.6 5.99,-8.65l29.38 -62.15c6.44,-11.12 1.91,-0.16 6.16,-12.15 1.18,-3.33 2.07,-8.2 3.22,-11.42l10.07 -19.22c6.22,-15.11 2.95,-26.39 8.85,-38.74 4.77,-10 7.25,-11.17 9.35,-23.6 4.06,-24.08 8.8,-26.21 13.66,-48.58 4.45,-20.44 -0.76,-39.62 5.01,-57.23 5.9,-18.02 11.58,-32.03 11.58,-54.33 0,-37.97 5.46,-166.18 -2.65,-195.05 -4.37,-15.55 -3.47,-6.93 -8.13,-17.5l-13.35 -41.57c-7.49,-14.9 -5.51,-21.12 -15.5,-35.75 -18.13,-26.55 -14.63,-37.5 -51.94,-79.86l-143.96 -112.33 -48.31 -21.26c-13.38,-5.09 -8.19,-6.18 -18.97,-10.32 -14.21,-5.46 -29.16,-2.78 -42.93,-8.33 -37.66,-15.15 -56.72,-9.67 -92.17,-17.67 -51.76,-11.68 -114.68,-5.2 -166.21,-2.24 -23.02,1.32 -32.73,6.91 -54.78,7.46 -35.53,0.9 -86.89,0.68 -116.39,8.09l-53.69 8.55c-19.42,2.82 -42.21,1.14 -57.54,4.71l-51.28 10.96c-24.39,2.51 -39.2,-0.86 -60.76,5.15 -48.36,13.47 -77.64,6.94 -108.16,16.32 -33.58,10.33 -130.9,19.43 -163.63,4.56 -10.02,-4.55 -3.55,-5.44 -19.96,-9.33 -37.97,-8.99 -32.11,-12.57 -46.94,-15.3l-83.33 -15.53z"/>
  <path class="fil2" d="M6981.82 4418.77c0.33,-0.07 5.61,-2.21 11.41,-2.99l40.13 -1.12c76.87,-1.84 91.21,6.18 150.22,7.22 45.37,0.81 54.42,5.37 90.41,16 13.51,3.99 32.55,1.51 46.39,5.22l78.94 27.69c13.84,4 7.43,3.56 17.57,8.14l33.82 17.51c19.44,11.89 27.23,8.35 52.27,28.37l19.82 16.7c0.58,0.55 1.39,1.29 1.98,1.82l72.42 90.97c2.64,6.66 0.93,4.09 4.58,10.8 8.36,15.35 18.1,52.59 20.14,71.28 12.85,117.73 0.26,113.6 -10.75,194.09 -3.93,28.74 -21.54,46.32 -29.56,72.04 -10.3,33.05 -33.12,49.96 -58.15,84.5l-19.29 20.85c-31.71,27.37 -57.72,42.15 -75.01,57.14 -23.73,20.56 -3.26,0.17 -53.09,23.71 -24.8,11.72 -36.01,13.86 -63.67,18.07 -23.53,3.58 -15.94,10.32 -37.37,13.33 -18.03,2.53 -32.59,2.18 -50.25,5.32 -12.69,2.26 -24.67,7.87 -41.43,9.52 -51.63,5.08 -198.94,11.73 -250.59,1.7 -25.46,-4.94 -13.6,-8.91 -36.81,-14.25 -30.12,-6.94 -43.48,-13.36 -64.51,-39.11 -27.95,-34.22 -10.65,-2.56 -34.15,-46.42 -2.69,-5.01 -7.28,-10.16 -10.22,-15.24 -3.19,-5.5 -14.24,-31.72 -15.16,-35.55 -2.17,-9.09 -1.34,-12.95 -4.2,-21.98 -2.3,-7.25 -5.28,-11.5 -7.49,-17.86 -9.54,-27.53 -5.47,-368.5 1.03,-410.61 4.26,-27.59 7.6,-68.32 8.21,-97.2 1.7,-80.79 -4.62,-53.16 35.01,-68.26 20.51,-7.81 14.02,-8.14 40.81,-13.17 16.2,-3.04 25.81,-7.19 41.34,-10.22 27.64,-5.39 68.68,-2.51 95.17,-8.02zm366.37 -321.02c-5.89,7.99 0.33,1.23 -7.07,6.89 -20.09,15.33 -44.58,16.31 -55.59,22.04 -27.31,14.22 -106.28,34.05 -135.72,39.33 -12.74,2.29 -25.09,3.14 -39.5,4.71 -16.6,1.82 -21.34,5.59 -36.71,7.29 -53.29,5.88 -287.22,23.92 -332.68,17.38 -7.77,-35.26 1.36,-330.86 1.79,-390.95 1.63,-227 -24.27,-205.06 98.91,-246.9 13.12,-4.45 27.44,-4.52 41.19,-7.36 15.49,-3.19 22.77,-8.28 40.59,-11.05 13.96,-2.17 28.98,-3.52 40.57,-6.63 19.01,-5.11 19.33,-7.16 43.81,-8.8 58.57,-3.91 44.7,-14.4 80.26,-16.21 15.83,-0.81 32.23,-1.07 48,-2.3 22.02,-1.71 26.79,-11.17 83.91,-13.92 37.95,-1.82 53.38,-7.96 86.34,-12.12 47.17,-5.95 143.79,-9.46 185.45,9.46 20.42,9.28 47.49,22.08 55.89,42.95 0.32,0.52 5.68,13.1 8.55,17.29 19.79,28.9 31.41,33.1 36.14,47.48 15.85,48.23 11.63,151.94 0.72,196.61 -3.44,14.09 -7.87,30.42 -10.85,44.98 -4.49,21.92 -8.61,16.97 -15.76,38.5 -11.52,34.71 -64.29,107.56 -90.41,132.59 -20.86,20 -37.86,40.91 -60.36,52.79 -0.75,0.4 -1.7,0.87 -2.45,1.28l-14.7 7.94c-27.6,10.12 -28.83,19.78 -50.31,26.75zm-869.89 -665.58c-27.03,2.41 -99.43,31.22 -117.94,54.68 -8.7,11.03 -14.68,10.14 -18.32,24.68 -11.23,44.92 -5.4,66.38 30.21,89.96 17.27,11.43 3.31,8.74 27.64,16.03 24.46,7.33 69.06,26.17 72.61,55.34 5.13,42.19 0.54,121.88 0.62,168.09 0.41,228.52 -3.34,450.95 -3.47,677.34 -0.06,110.68 -6.45,414.94 2.46,513.17 2.22,24.49 4.06,57.77 4.72,79.84 2.11,70.3 3.97,91.24 16.7,156.18 2.02,10.27 3.14,27.21 6.38,37.61 8.51,27.27 22.96,63.25 39.67,83.91l10.72 15.37c0.45,0.69 1,1.62 1.44,2.3l12.74 16.08c0.53,0.49 1.33,1.24 1.88,1.72 11.39,9.92 28.37,15.22 53.04,34.8 8.92,7.08 24.1,3.42 36.44,6.87 13.7,3.84 4.89,3.42 14.66,7.39 5.97,2.43 26.23,4.74 33.79,5.33 51.46,4.01 112.25,7.59 164.27,5.06 42.81,-2.08 256.91,-4.89 289.39,-14.27 31.93,-9.22 87.5,1.61 116.27,-12 17.72,-8.38 5.14,-9.47 33.51,-10.75 55.99,-2.51 36.45,-10 69.86,-14.34 14.76,-1.92 20.62,-1.69 33.22,-6.62 24.55,-9.61 37.73,-3.3 67.38,-16.92 13.12,-6.03 30.95,-3.75 41.04,-12.8l15.29 -8.73c21.67,-6.61 10.13,-6.23 25.82,-16.39 0.2,-0.13 6.64,-3.46 7.44,-3.93 14.94,-8.68 29.34,-12.02 41.12,-20.64 3.51,-2.57 -1.25,0.1 6.95,-4.36 12.29,-6.68 14.27,-12.49 28.43,-22.35 35.12,-24.45 51.29,-28.58 79.06,-60.56l93.8 -107.53c5.1,-7.55 3.39,-6.87 7.8,-14.51l36.77 -69.02c11,-17.92 4.27,-20.85 10.91,-33.51 2.13,-4.07 3.33,0.89 9.04,-12.79 3.5,-8.38 2.24,-9.71 3.67,-19.39 1.8,-12.27 21.87,-58.6 28.25,-98.5 3.91,-24.51 2.72,-54.03 3.37,-82.12 0.4,-17.22 4.47,-21.08 6.32,-36.27 5.16,-42.32 0.7,-76.4 -3.79,-117.01 -7.03,-63.62 -6.42,-32.71 -16.15,-68.01 -5.29,-19.17 0.76,-17.89 -9.54,-34.97 -16.3,-27.04 -41.37,-80.93 -61.97,-102.52l-22.88 -24.79c-29.28,-30.18 -66.23,-61.22 -106.09,-84.39l-27.33 -16.43c-9.71,-6.44 -4.69,-2.48 -15.07,-7l-29.88 -13.99c-7.24,-2.49 -8.79,-3.32 -15.2,-6.72l-31.24 -9.43c-10.45,-3.39 -5.46,-3.79 -14.42,-7.48 -11.59,-4.77 -67.29,1.82 -64.48,-15.03 3.21,-19.26 9,5.18 11.42,-23.31 20.82,-0.61 29.63,-0.93 44.92,-9.6l29.28 -18c21.86,-11.14 36.34,-25.15 55.37,-40.29 6.79,-5.4 9.13,-4.54 16.06,-9.63l47.26 -47.69c13.35,-11.16 20.44,-25.46 30.78,-39.36 15.89,-21.35 29.12,-35.04 38.35,-57.36l46.53 -96.2c4.78,-18.97 8.03,-12.26 12.07,-36.4 3.74,-22.4 6.85,-18.46 13.19,-32.7 5.86,-13.12 3.22,-28.93 4.89,-44.45 1.82,-16.87 8.64,-20.73 12.02,-37.97 2.87,-14.65 1.51,-30.32 3.2,-45.16 2.83,-24.97 3.76,-63.56 5.92,-89.2 2.08,-24.69 -3.99,-106.21 -16.05,-127.34 -9.45,-16.56 -7.05,-30.83 -19.2,-53.97l-18.22 -28.79c-7.04,-15.93 -18.53,-36.49 -33.19,-48.87 -0.59,-0.49 -1.5,-1.11 -2.08,-1.6l-28.2 -30.04c-3.64,-3.2 -3.26,-2.49 -6.09,-4.95 -0.56,-0.48 -1.37,-1.18 -1.92,-1.67l-57.34 -44.98c-13.9,-10.46 -17.7,-8.01 -32.29,-15.49 -26.16,-13.4 -28.52,-19.53 -69.74,-29.03 -42.3,-9.75 -9.63,-8.12 -78.44,-17.06 -65.9,-8.56 -105.19,-12.57 -173.93,-4.17 -64.38,7.86 -98.22,4.97 -172.27,17.71 -27.01,4.64 -63.2,2.73 -86.81,8.69l-253.41 36.45c-52.1,11.05 -62.15,0.45 -102.67,-8.92 -16.53,-3.82 -16.46,-6.8 -34.15,-13.16 -6.52,-2.34 -10.94,-2.57 -17.69,-4.16 -18.78,-4.43 -22.13,-11.18 -32.84,-13.82 -21.44,-5.29 -70.76,-2.95 -93.65,-1.24 -10.03,0.75 -12.3,1.7 -18.45,5.71l-24.42 22.7c-26.11,32.61 -14.71,100.53 -25.11,139.59z"/>
  <path class="fil1" d="M12217.76 4159.49c1,-12 3.59,-21.97 8.85,-31.43l40.05 -91.76c8.46,-27.45 6.62,-13.94 12.72,-27.55 3.72,-8.32 2.39,-9.8 4.6,-17.37 3.94,-13.45 0.58,-3.47 7.55,-14.42l19.64 -46.27c14.3,-43.12 8.04,-11.84 17.46,-44.78 4.39,-15.37 8.81,-13 13.65,-30.28l34.04 -86.79c0.31,-0.86 0.64,-1.85 1,-2.66 3.9,-8.99 5.62,-5.14 9.86,-15.77 4,-10.04 1.02,-8.92 3.89,-18.08 4.16,-13.27 1.92,-3.26 8.15,-13.82l42.97 -107.14c12.47,-20.77 4.86,-16.85 11.96,-31.98 7.57,-16.13 3.27,4.03 12.95,-30.98 3.33,-12.03 -0.27,-2.48 5.38,-12.93 4.07,-7.53 4.37,-5.61 7.17,-14.8 2.75,-8.99 0.95,-8.86 4.44,-17.52 3.92,-9.72 4.38,-6.06 8.08,-13.89l65.1 -172.88c5.57,-25.32 6.16,-10.88 12.51,-27.76 2.53,-6.72 1.64,-8.96 3.52,-18.44 3.8,-19.11 9.26,-14.29 13.28,-30.66 2.02,-8.22 0.63,-9.86 3.23,-18.75 4.8,-16.42 1.65,-3.4 7.26,-14.7 9.55,-19.22 -1.22,-21.47 12.45,-31.49 0,33.41 9.96,25.68 16.74,56.49 5.57,25.33 2.43,9.27 10.47,26.15 4.72,9.91 4.01,18.91 7.46,29.15 4.85,14.4 6.73,7.54 11.36,25.25 5.25,20.04 0.04,10.48 9.64,26.97 9.62,16.52 3.57,9.29 8.11,28.51l30.03 83.46c6.01,21.57 5.65,3.72 14.47,40.45 4.31,17.95 6.67,12.77 11.63,24.99 7.82,19.3 -3.61,7.95 14.08,40.83 8.03,14.93 2.34,14.68 7.79,28.82 5.9,15.33 7.6,5.25 12.03,28.25l17.78 55.44c7.05,18.27 6.92,2.75 11.56,25.06 7.88,37.94 9.22,17.46 14.59,40.33 11.4,48.54 6.56,16.06 14.67,40.25 4.01,11.97 1.86,16.64 7.98,28.64 8.63,16.92 6.15,7.71 10.72,29.56 3.71,17.76 5.69,11.23 11.01,25.61 3.63,9.83 2.81,18.43 7.45,29.16 5.75,13.31 6.53,6.03 10.41,26.2 3.66,19.01 3.17,12.08 10.27,26.34 6.32,12.68 3.36,17.22 7.38,29.23 5.48,16.37 7.16,5.96 11.66,24.96 10.82,45.61 7.34,21.2 14.13,40.79 1.25,3.6 3.2,13.88 4.13,17.84 -38.64,20.45 -84.99,11.36 -130.46,19.65 -26.06,4.75 -33.93,13.03 -85.63,13.23 -23.06,0.09 -25.32,3.01 -42.85,8.41 -29.52,9.08 -62.59,3.36 -92.36,10.16 -85.01,19.41 -36.98,4.96 -87.19,11.66 -15.01,2 -26.49,6.51 -40.52,10.73 -23.6,7.11 -53,-2.54 -88.52,10.34 -39.07,14.16 -54.27,2.68 -89.22,13.29 -22.3,6.77 -2.85,8.71 -42.55,8.71zm-113.5 318.53c28.68,-6.68 50,-15.49 78.55,-20.3 17,-2.87 12.5,-2.43 25.13,-7.82 17.41,-7.44 36.25,-4.93 56.41,-9.49 18.02,-4.08 32.16,-12.01 52.52,-13.39 13.11,-0.89 18.24,0.96 30.53,-2.42 12.26,-3.37 11.9,-5.54 24.31,-8.65 18.86,-4.73 43.42,-1.83 59.01,-6.89 45.77,-14.83 49.52,-6.92 83.43,-15.42 12.21,-3.07 14.84,-6.65 27.2,-9.41 14.78,-3.3 46.56,-2.2 61.59,-4.32 18.79,-2.65 11.2,-0.6 26.42,-6.53 10.65,-4.16 13.9,-5.11 27.63,-5.32 19.06,-0.29 43.93,-1 60.9,-5 17.18,-4.05 9.52,-6.65 23.87,-9.07 27.36,-4.61 64.22,0.45 91.21,-7.65 36.04,-10.81 81.15,-11.03 118.07,-13.79 32.6,-2.43 19.87,15.53 31.57,35.99l26.16 72.69c3.05,11.95 -0.32,2.22 4.02,10.62l13.11 38.15c5.11,12.49 7.32,7.18 10.97,21.98 8.79,35.61 11.38,24.59 16.15,49.76l9.47 23.49c3.3,5.95 2.22,2.5 4.22,10.43l19.49 64.72c3.48,9.74 6.9,8.85 10.66,22.3 2.31,8.26 2.46,18.31 5.97,26.98 5.14,12.7 6.36,5.44 10.4,22.54l46.46 154.91c2.91,19.87 9.74,20.8 15.73,50.18 2.69,13.2 10.51,23.59 15.87,35.39l18.25 33c10.6,18.13 19.07,20.18 33.33,32.58l19.93 16.68c0.65,0.44 1.59,0.99 2.23,1.43 0.64,0.44 1.51,1.07 2.14,1.52 12.05,8.63 24.31,10.3 38.5,16.42 39.49,17.03 96.11,9.24 135.48,-6.28l24.47 -15.8c13.49,-9.18 33.95,-40.67 36.77,-54.76 2.05,-10.27 1.53,-19.69 3.65,-29.31 10.4,-47.34 10.73,-16.92 0.96,-73.21 -3.19,-18.36 -2.27,-30.59 -4.91,-50.01 -3.01,-22.13 -10.74,-19.5 -13.77,-41.15 -2.92,-20.87 -9.96,-23.88 -15.08,-43.5 -2.53,-9.71 -1.57,-10.32 -6.58,-19.04 -7.99,-13.89 -3.16,0.21 -9.32,-19.97l-16.76 -41.83c-5.18,-14.43 -3.42,-5.79 -9.05,-16.58 -5.36,-10.28 -3.41,-12.44 -6.67,-22.62 -2.62,-8.17 -5.93,-10.58 -9.85,-19.44 -3.61,-8.18 -3.86,-14.82 -6.89,-22.4 -5.11,-12.74 -5.2,-6.72 -9.26,-16.37 -3.54,-8.4 -2.3,-13.63 -6.46,-22.83 -5.94,-13.14 -5.19,-2.89 -10.03,-19.26 -3.02,-10.24 -1.65,-12.68 -6.82,-22.47l-13.87 -37.39c-6.7,-14.3 -5.15,-2.24 -10.49,-22.47l-37.98 -104.81c-5.62,-9.71 -4.74,-5.26 -7.8,-17.83 -15.01,-61.63 -40.41,-54.53 9.17,-92.84 5.39,-4.17 9.22,-7 14.01,-11.62l37.79 -42.76c20.08,-30.29 15.67,-46.74 15.67,-83.18 0,-12.66 -3.84,-14.72 -10.22,-22.73l-9.82 -12.15c-8.43,-8.49 -24.63,-17.47 -34.7,-23.88 -11.2,-7.12 -29.53,-10 -43.1,-15.48 -18,-7.26 -28.84,-6.31 -52.28,-6.31 -21.57,-40.76 -17.64,-47.34 -25.8,-62.07l-24.58 -70.62c-4.66,-16.7 -4.83,-4.57 -16.39,-45.85 -3.69,-13.17 -5.58,-9.92 -9.98,-19.31 -5.6,-11.96 -1.9,-10.52 -5.55,-23.74 -2.38,-8.64 -6.69,-13.49 -9.28,-20.01 -4.41,-11.12 -2.07,-15.83 -6.27,-26.68 -4.6,-11.87 -6.08,-5.48 -10.28,-19.01 -3.58,-11.56 -0.95,-16.17 -5.95,-27 -6.28,-13.59 -5.76,-2.47 -9.97,-19.32 -10.12,-40.55 -11.34,-29.19 -15.55,-46.69 -1.88,-7.79 -1.57,-15.25 -5.33,-23.96 -5.08,-11.76 -4.99,-2.08 -9.79,-19.5 -2.2,-7.97 -1.81,-18.64 -5.6,-27.36 -7.12,-16.39 -3.48,5.15 -9.71,-19.58 -3.53,-14.02 -0.33,-14.93 -5.86,-27.09 -17.38,-38.2 -6.92,-29.01 -13.93,-48.31 -4.71,-12.96 -5.9,-6.21 -9.84,-19.45 -2.88,-9.65 -2.66,-22.5 -4.36,-28.59 -7.4,-26.46 -3.05,8.34 -14.46,-47.78 -4.51,-22.21 -2.22,-6.74 -8.78,-20.51 -3.89,-8.16 -5.7,-32.25 -13.56,-48.69 -6.48,-13.57 -7.36,-36.9 -13.27,-48.97 -6.89,-14.09 -7.01,-31.56 -12.05,-46.53 -2.93,-8.7 -7.9,-13.06 -10.43,-22.52 -2.62,-9.78 -1.24,-15.16 -3.89,-25.4 -5.7,-22.01 -4.65,-3.99 -13.94,-48.3 -4.35,-20.78 -9.71,-18.43 -14.63,-47.61 -3.78,-22.4 -11.17,-25.69 -14.69,-47.56l-8.33 -24.62c-6.72,-12.52 -7.29,-36.53 -12.69,-49.56 -12.4,-29.92 -9.29,-37.26 -14.18,-48.06 -16.85,-37.26 -5.53,-19.65 -13.06,-45.52 -4.41,-15.14 -5.11,-7.29 -9.77,-19.52 -3.87,-10.18 -2.4,-17.57 -5.83,-27.12 -4.67,-13 -5.61,-6.11 -9.75,-19.54 -3.63,-11.78 -0.93,-15.11 -5.96,-26.99 -13.21,-31.2 -26.68,-62.77 -52.51,-86.62l-44.11 -32.78c-15.97,-9 -30.79,-7.68 -47.3,-14.95 -10.1,-4.45 -9.7,-9 -23.95,-9l-98.85 0c-11.55,0 -12.38,7.5 -24.33,12.28 -18.88,7.56 -25.16,19 -39.69,33.54 -7.55,7.55 -10.83,10.74 -17.51,19.1l-36.54 73.3c-3.7,13.13 -2.65,16.87 -8.84,31.44 -13.89,32.69 -1.16,42.54 -25.19,84.65l-36.76 73.08c-6.49,12.02 -4.3,15.76 -9.5,27.11l-13.23 27.04c-4.76,14.5 -7.23,11.87 -12.19,24.42 -13.42,33.99 -25.89,73.53 -42.96,103.49 -6.47,11.36 -2.93,15.84 -8.48,28.13 -6.45,14.28 -5.96,2.83 -11.87,24.74l-21.55 55.34c-6.53,11.15 -1.64,-1.86 -6.69,11.62l-9.41 27.2c-8.74,14.85 -18.4,50.89 -25.8,69.39l-43.38 106.73c-5.68,21.04 -11.28,21.74 -15.81,39.11 -3.81,14.61 -0.12,4.37 -5.07,13.23 -6.08,10.86 -1.56,-1.98 -6.74,11.57 -2.44,6.39 -1.47,6.71 -3.44,14.87 -4.36,18.08 -6.25,11.39 -11.68,24.94l-75.31 188.3c-5.24,11.46 -2.82,17.39 -8.13,28.48l-22.76 50.47c-3.26,7.54 -1.69,5.99 -4.18,14.13l-39.18 92.63c-7.12,12.33 -4.15,16.26 -9.04,27.57 -5.59,12.91 -7.15,4.77 -12.24,24.37 -5.19,20.01 -4.35,12.01 -11.06,25.56 -4.98,10.06 -3.81,16.32 -9.48,27.13 -14.83,28.25 -30.98,77.8 -46.75,103.36l-23.78 53.11c-4.23,12.85 0.16,3.5 -5.53,12.77 -6.26,10.2 -2.05,-1.06 -7.13,11.18l-23.67 53.22c-8.43,13.16 -6.1,11.97 -11.6,25.02l-55.63 109.13c-0.39,0.72 -0.88,1.66 -1.25,2.42l-10.45 22.5c-15.38,24.39 -28.35,63.44 -44.04,87.76 -6.21,9.63 -1.91,-0.26 -7.11,11.2l-30.3 61.23c-0.35,0.84 -0.59,1.89 -0.92,2.74l-16.52 34.74c-0.35,0.8 -0.71,1.8 -1.08,2.58l-120.48 267.62c-2.17,12.53 -0.93,21.12 -4.44,32.19 -8.22,25.95 -8.82,31.84 -1.87,61.89 5.43,23.48 4.15,39.12 14.46,58.77l14.27 22.34c16.04,18.62 -13.34,-13.35 3.45,3.87 3.85,3.95 2.27,2.52 5.71,5.27 13.67,10.96 21.28,15.71 39.23,19.35 30.55,6.18 47.79,22.84 88.34,6.77 5.1,-2.02 5.03,-3.06 12.87,-5.48 25.99,-8.04 37.47,-17 58.57,-32.97l15.17 -14.11c3.65,-3.74 2.24,-2.16 5.37,-5.61l47.89 -54.63c0.47,-0.59 1.18,-1.41 1.66,-2 0.48,-0.58 1.23,-1.37 1.71,-1.95l115.72 -184.5c3.1,-7.3 0.86,-5.29 5.01,-13.29 3.42,-6.61 4.26,-5.5 7.27,-11.04l75.01 -148.33c7.2,-12.3 3.37,-13.78 10.59,-26.03l60.61 -129.78z"/>
  <path class="fil1" d="M18017.26 4390.15c0,-32.78 -7.11,-162.37 6.88,-194.49 11.43,-26.25 6.8,-51.16 14.48,-69.73 3.09,-7.47 5.76,-7.55 9.25,-20.04 1.26,-4.5 1.66,-8.69 2.64,-12l10.04 -19.26c2.81,-6.22 2.02,-6.07 3.34,-11.3 4.8,-18.98 -0.39,-5.48 7.15,-18.49l19.19 -39.39c4.26,-6.85 5.9,-11.65 10.72,-18.57 16.09,-23.11 27,-49.23 47.12,-70.04l43.51 -48.03c16.65,-18.25 -14.02,13.45 3.62,-3.71l91.05 -62.72c5.61,-2.3 5.21,-1.35 10.71,-3.94 9.95,-4.67 1.95,-1.66 9.24,-5.41l22.27 -7.01c15.23,-5.13 6.64,-4.72 18.82,-10.47l74.55 -13.33c51.83,-14.17 91.14,4.98 123.11,8.69 8.47,0.98 15.65,0.11 24.35,1.27 18.32,2.45 26.57,10.68 43.84,14.73 13.2,3.1 9.81,2.46 20.37,8.93 28.31,17.34 62.06,32.84 78.96,63.83 16.06,29.44 18.72,27.21 15.31,65.63 -2.89,32.58 -0.31,79.3 -0.24,113.36 0.09,39.05 -3.66,68.16 -3.66,109.83 0,50.42 1.64,341.21 8.78,390.3 2.66,18.32 5.41,32.84 8.1,50.47 5.03,32.92 -0.2,78.06 4.08,109.42 6.18,45.33 8.82,57.73 -24.14,83.7 -29.17,22.98 -55.38,48.93 -87.65,66.12 -6.97,3.71 -1.57,0.57 -8.8,5.84 -14.92,10.87 -1.47,2.55 -19.43,9.86 -13.61,5.54 -8.44,6.06 -18.47,10.82 -6.4,3.03 -12.12,3.19 -19.2,6.42 -12.2,5.56 -4.23,5.48 -18.92,10.37l-33.33 10.61c-11.15,5.88 -43.81,6.61 -63.62,9.6 -15.63,2.36 -39.33,7.58 -48.81,6.39 -13.54,-1.7 -28.03,-7.8 -44.74,-8.35 -11.02,-0.36 -20.23,-0.88 -26.62,-2.67l-79.65 -33.86c-0.63,-0.44 -1.42,-1.17 -2.03,-1.63l-3.89 -3.44c-0.59,-0.48 -1.39,-1.2 -1.98,-1.67l-33.3 -21.62c-5.34,-3.66 -3.45,-2.55 -7.8,-6.85 -3.04,-3 -3.75,-3.96 -7.21,-7.43 -0.53,-0.53 -1.31,-1.29 -1.84,-1.82l-60.45 -71.36c-0.46,-0.61 -1.21,-1.39 -1.66,-2l-24.22 -38.02c-4,-5.86 -3.44,-4.05 -6.27,-8.37l-35.18 -78.32c-6.66,-20.4 -13.47,-23.75 -15.64,-42.95 -3.2,-28.3 -12.93,-41.64 -16.6,-67.61 -1.34,-9.45 -1.62,-16.9 -3.56,-25.73 -2.7,-12.33 -5.1,-13.38 -7.26,-22.03 -2.64,-10.56 -1.15,-16.42 -1.95,-27.34 -1.33,-18.07 -3.37,-31.67 -3.37,-55.21zm768.87 -776.19c-14.18,-10.39 -26.25,-28.6 -40,-40.55l-61.12 -37.73c-17.45,-6.57 -15.35,-9.96 -35.81,-15.44 -18.98,-5.09 -8.59,-2.82 -23.11,-9.84 -14.5,-7.01 -36.49,-8.91 -51.85,-14.05 -21.99,-7.36 -31.97,-4.47 -58.61,-7.3 -17.49,-1.86 -34.22,-9.61 -55.31,-10.59 -10.69,-0.5 -22.34,0.62 -33.01,0.06 -37.19,-1.96 -49.4,-5.65 -93.76,1.41 -19.77,3.14 -36,8.27 -56.48,9.42 -34.85,1.95 -31.27,9.38 -52.13,13.76 -12.46,2.62 -17.94,0.73 -27.73,5.22 -7.68,3.53 -5.35,3.94 -11.22,7.09l-4.96 2.37c-21.64,8.8 -46.11,16.74 -63.37,28.16 -8.78,5.81 -3.9,2.38 -11.97,6.34l-141.9 103.4c-41.38,38.28 -77.83,80.96 -114.57,123.41l-51.61 65.55c-10.56,17.79 -23.12,33.73 -31.04,53.16 -6.78,16.63 -21.27,37.26 -27.98,56.23l-7.99 24.97c-7.42,12.26 -7.05,4.12 -9.78,23.17 -2.6,18.15 -0.15,11.37 -7.43,25.52 -6.59,12.82 -5.67,8.02 -7.36,25.59 -2.95,30.75 -13.65,26.99 -14.68,54.88 -0.79,21.33 -0.6,42.12 -6.17,59.73 -8.52,26.91 -8.56,21.46 -8.41,57.5 0.2,46.72 -3.65,82.96 -3.65,131.82 0,41.59 3.93,71.02 3.64,109.86 -0.28,37.05 10.75,64.71 14.13,99.37 2.52,25.91 -2.17,25.83 6.74,48.18 9.03,22.66 4.6,25.35 9.86,48.72 5.22,23.21 7.49,2.75 13.67,44.91 2.26,15.41 3.74,10.46 9.44,19.85 3.49,5.76 2.21,2.6 4.44,10.2 6.63,22.6 11.58,24.82 15.77,39.15 6.36,21.74 27.16,74.04 40.23,91.57l56 86.79c36.18,49.43 68.43,77.91 113.52,117.14l175.82 95.11c11.92,6.64 21.73,6.76 34.85,9.09 18.75,3.34 25.41,11.59 44.58,13.99 21.61,2.72 31.33,-2.05 49.99,4.94 32.32,12.11 120.54,11.87 160.14,5.47 29.64,-4.79 68.93,-9.64 93.16,-20.34 16.45,-7.26 26.83,-2.72 45.39,-13.19l138.79 -73.56c6.17,-4.89 -0.36,-0.61 8.15,-6.5l69.79 -59.11c5.27,-4.04 -0.49,-8.06 5.76,-1.57 2.26,2.35 4.77,34.53 10.79,46.89 5.34,10.96 4.32,9.79 6.62,22.67 2.77,15.55 1.06,9.42 8,21.29 5.28,9.02 4.86,10.92 9.37,19.92l34.36 49.86c14.79,15.78 33.34,25.66 51.15,36.72 23.13,14.37 11.37,10.94 47.41,11.2 10.49,0.07 15.82,1.47 23.43,2.21 11.53,1.13 12.78,-0.93 24.2,-1.83 31.16,-2.46 25.53,5.04 49.21,-9.54 10.08,-6.21 9,-4.9 17.17,-12.12l5.76 -5.22c21.28,-17.65 19.72,-22.78 31.86,-45.03 12.8,-23.46 8.62,-12.73 9.31,-45.61 0.47,-22.27 6.3,-27.07 2.21,-53.28 -2.84,-18.19 -0.38,-37.84 -4.11,-54.52 -3.97,-17.8 -10.28,-26.5 -12.22,-46.36 -2.12,-21.7 0.18,-31.03 -4.29,-50.62 -17.94,-78.62 -6.03,-43.32 -14.53,-102.63 -2.94,-20.51 -10.05,-26.7 -11.02,-47.56 -1.99,-43.07 -0.02,-68.38 -10.56,-102.94 -5.41,-17.75 -6.56,-85.01 -7.67,-109.49 -0.7,-15.63 -4,-33.42 -7.79,-47.14l-1.67 -409.05 12.95 -85.91c2.31,-29.06 -1.13,-29.9 8.02,-57.88 5.38,-16.46 4.39,-41.18 7.72,-58.19 3.48,-17.77 9.07,-16.39 14.24,-51.66 2.67,-18.19 10.74,-21.24 15.11,-50.79 0.19,-1.31 1.82,-9.72 2.59,-12.06 4.64,-14.08 0.11,-0.35 6.01,-12.29 8.23,-16.67 4.13,-34.12 12.54,-53.36 11.96,-27.35 4.56,-25.5 7.41,-58.54 2.2,-25.5 4.8,-62.34 -6.62,-85.29l-8.86 -24.09c-5.64,-12.38 -15.8,-30.18 -26.96,-38.94 -58.85,-46.21 -64.93,-45.89 -148.16,-45.89 -13.03,0 -44.34,13.31 -55.27,21.61 -0.61,0.46 -1.36,1.24 -1.94,1.72l-5.74 5.25c-16.86,14.47 -45.21,42.64 -55.22,61.94 -4.53,8.73 -1.91,5.86 -7.45,14.52l-28.15 48.74z"/>
  <path class="fil1" d="M22158.18 4064.29c0,75.78 -1.34,413.87 8.29,485.99 4.27,32.01 10.28,74.46 10.07,110.75 -0.1,18.18 -1.53,44.51 0.51,61.78 3.84,32.53 7.75,35.09 -12.87,50.44l-11.45 10.53c-1.39,1.23 -6.51,5.02 -8.29,6.36l-10.35 7.96c-0.62,0.46 -1.49,1.09 -2.11,1.55l-54.98 43.87c-8.47,5.53 -4.1,1.84 -12.42,5.89l-61.1 30.43c-12.76,5.31 -6.4,6.25 -18.23,11.07 -7.56,3.07 -15.89,3.14 -23.87,5.42 -13.04,3.72 -9.77,5.93 -23.07,9.88 -14.95,4.42 -41.64,4.24 -55.87,6.37 -64.9,9.74 -45.63,-0.49 -101.36,-2.53 -24.19,-0.88 -34.97,-12.09 -59.02,-17.87 -23.38,-5.62 -66.53,-36.95 -85.98,-53.15l-71.84 -81.93c-15.41,-21.25 -29.65,-42.86 -39.11,-67.07l-24.45 -52.43c-5.67,-10.55 -3.73,-11.14 -8.01,-21.28 -5.8,-13.78 -5.82,-4.77 -9.87,-23.07 -5.46,-24.64 -1.79,-24.56 -12.4,-49.85 -5.45,-13 -4.78,-33.44 -8.74,-49.84 -4.15,-17.18 -10.07,-27.9 -10.27,-51.97 -0.35,-44.27 -3.5,-75.81 -3.5,-120.98 0,-37.06 3.46,-60.2 3.47,-95.38 0.01,-26.47 2.51,-19.09 9.56,-38.04 6.2,-16.64 3.45,-25.89 5.61,-45.64 1.56,-14.17 26.37,-66.99 27.79,-71.06 26.5,-75.56 20.44,-47.36 48.35,-98.11l18.6 -32.66c4.06,-5.7 -0.78,0.62 5.12,-5.86 22.46,-24.64 51.84,-64.77 78.19,-82.9l21.95 -14.66c27.2,-20.58 57.14,-39.89 89.67,-49.46 18.61,-5.48 21.46,-12.18 36.62,-14.64 17.01,-2.76 26.65,-0.89 42.96,-4.64 60.83,-13.96 27.18,-8.38 84.41,-7.14l95.35 14.49c12.06,4.28 1.47,0.38 9.68,4.96 12.79,7.14 -0.96,2.22 18.49,7.14l22.6 10.35c6.86,3.97 1.7,1.08 9.95,4.7l12.2 6.1c18.6,12.17 36.51,24.12 49.86,41.67l16.16 24.12c8.33,12.11 7.55,25.95 7.44,40.16l-3.75 150.21zm62.24 -450.34l-7.32 0c-6.6,-24.71 -90.46,-83.32 -123.61,-92.41l-25.42 -7.53c-16.02,-8.72 -33.31,-7.57 -48.67,-13.57 -10.25,-4 -7.07,-4.62 -21.44,-7.85 -9.37,-2.11 -16.83,-2.86 -29.83,-3.12 -24.14,-0.48 -32.63,-4.44 -53.33,-8.91 -36.78,-7.94 -135.56,-3.04 -170.9,4.35 -17.28,3.61 -42.29,3.62 -55.04,7.2 -16.55,4.65 -7.58,4.71 -19.97,9.32 -12.63,4.7 -30.24,3.5 -72.11,23.08l-69.26 36.91c-8.7,6.04 -3.08,1.85 -11.72,6.59 -0.97,0.53 -3.78,2.04 -4.71,2.61 -0.67,0.42 -1.53,1.05 -2.18,1.48l-176.85 152.67c-2.91,3.23 -3.88,4.29 -6.99,7.65l-3.54 3.78c-3.73,4.01 -1.86,1.78 -5.31,5.68l-48.38 57.8c-0.49,0.58 -1.13,1.46 -1.61,2.05l-62.25 91.53c-1.3,2.76 -0.82,2.45 -2.12,5.2l-31.14 71.38c-5.97,17.95 -6.59,7.73 -15.86,46.39 -4.3,17.97 -10.59,23.09 -14.21,48.02 -2.81,19.3 -11.08,26.88 -13.73,48.52 -3.08,25.25 2.57,33.84 -6.07,56.17 -17.39,44.91 -9.46,226.96 -9.46,283.44 0,22.46 1.48,36.61 4.63,57.61 2.99,19.91 9.5,29.12 10.03,55.88 0.42,21.65 2.79,36.13 9.78,52.46 7.71,17.99 3.83,36.53 11.28,54.62 8.9,21.62 9.79,37.22 14.51,47.74l27.6 67.59c3.92,14.16 5.69,9.63 11.01,21.94l92.04 156.93c0.45,0.64 0.99,1.58 1.43,2.24l31.63 37.93c9.41,11.93 19.72,22.09 30.84,31.41 3.5,2.94 4.77,3.83 8.01,6.63l3.87 3.46c0.58,0.5 1.38,1.22 1.95,1.71l8.04 6.61c0.56,0.5 1.36,1.23 1.92,1.74 0.56,0.51 1.31,1.28 1.87,1.79 5.53,5.15 2.56,3.18 9.69,8.61l75.92 52.23 88.54 39.61c18.37,4.85 17.42,9.81 30.82,13.11 17.85,4.4 27.38,3.78 41.15,10.11 7.1,3.27 19.3,5.92 26.18,6.77 30.01,3.73 28.8,-0.72 54.41,7.84 31.3,10.46 144.75,5.83 176.81,-1.9 18.23,-4.4 39,-4.1 53.74,-8.5 13.36,-3.98 13.54,-7.5 22.92,-10.03 11.39,-3.07 19.6,-1.78 28.26,-4.7l29.9 -14.04c20.24,-6.66 38.53,-18.05 56.87,-27.34 5.56,-2.82 5.16,-1.78 10.28,-4.36 1,-0.5 3.78,-2.04 4.71,-2.61 0.67,-0.41 1.5,-1.08 2.16,-1.51l96.22 -68.54c0.56,-0.51 1.38,-1.22 1.94,-1.72 0.56,-0.51 1.38,-1.21 1.95,-1.72l21.07 -19.2c5.21,-5.18 -0.12,-2.51 9.07,-9.24 0,36.73 8.62,35.62 15.04,65.51 4.34,20.22 12.8,40.36 23.5,57.04 0.42,0.66 1.08,1.5 1.5,2.16l13.92 22.69c33.84,42.26 31.56,32.29 68.79,55.69 23.45,14.74 18.27,8.96 68.45,11.72 10,0.55 19.75,-2.48 35.83,-2.43 22.41,0.07 21.47,2.11 35.75,-8.19 4.29,-3.1 5.58,-4.05 10.63,-7.68 14.25,-10.26 33.15,-24.29 39.19,-41.36 23.17,-65.55 16.92,-10.01 16.92,-122.21 0,-32.34 -6.56,-47.61 -13.04,-71.17 -5.36,-19.46 -2.59,-57.22 -8.01,-76.2 -5.9,-20.64 -7.24,-5.77 -8.34,-31.93 -1.11,-26.37 -1.58,-55.43 -8.77,-79.11 -5.23,-17.26 -4.22,-16.95 -6.91,-37.02 -3,-22.4 -1.83,-54.9 -6.06,-78.15 -16.98,-93.27 -6.66,-78.14 -15.31,-153.12 -1.47,-12.74 -4.85,-21.1 -7.04,-36.89 -9.23,-66.5 -3.4,-275.41 -3.4,-355.41 0,-46.21 15.06,-79.38 14.58,-128.21 -0.29,-30.21 3.65,-38.6 10.28,-59.28 6.08,-18.97 2.45,-44.96 9.15,-64.07 3.99,-11.36 6.66,-7.87 9.5,-23.45 8.61,-47.23 10.72,-34.69 15.58,-57.65 10.54,-49.78 11.64,-33.38 15.81,-53.75 2.62,-12.83 0.7,-20.66 4.55,-32.06 18.04,-53.33 18.81,-120.36 -4.86,-172.37l-19.49 -35.43c-3.35,-3.92 -12.65,-8.19 -19.4,-13.55 -25.42,-20.2 -18.04,-15.28 -46,-27.23 -10.02,-4.28 -11.36,-10.28 -26.33,-10.28l-69.56 0c-11.77,0 -40.51,15.92 -50.39,22.84 -20.49,14.36 -36.44,34.78 -52.56,53.62 -0.49,0.58 -1.21,1.38 -1.7,1.96 -0.48,0.59 -1.19,1.41 -1.66,2.01 -14.1,18.09 -19.55,37.82 -28.23,52.32 -3.52,5.89 0.17,-0.92 -4.85,6.14 -5.15,7.24 -4.69,4.61 -7.08,14.89z"/>
  <path class="fil2" d="M3741.9 4499.32c-20.31,1.44 -41.06,-0.13 -61.21,2.5 -42.68,5.56 -46.96,10.66 -110.69,16.84 -18.72,1.82 -31.99,6.26 -54.65,8.58l-109.88 15c-11.23,1.57 -40.16,9.87 -50.33,13.21 -21.02,6.88 -31.49,4.09 -55.64,6.72 -49.17,5.36 -94.9,27.15 -98.25,3.09 -1.89,-13.56 4.68,-14.63 9.06,-22.52 4.61,-8.32 4.32,-13.71 7.75,-21.85 5.37,-12.72 6.79,-8.18 11.89,-20.65 3.63,-8.86 3.02,-12.68 7.74,-21.47l19.82 -42.59c6.3,-15.04 2.52,-24.72 10.54,-36.81 11.75,-17.7 19.84,-34.49 25.29,-56.14 5.23,-20.78 1.56,0.55 11.13,-21.28 3.21,-7.32 3.67,-15.47 6.76,-22.7l28.94 -66.07c4.25,-10.51 5.8,-7.77 10.18,-19.05 3.62,-9.34 3.34,-16.68 7.55,-25.47 4.74,-9.88 7.4,-8.56 12.42,-19.63l17.51 -45.03c4.29,-11.73 6.46,-7.63 11.3,-21.38l62.87 -156.47c5.46,-21.23 12.47,-28.77 15.83,-47.24 3.95,-21.71 1.26,-10.76 8.08,-24.94 5.23,-10.87 3.22,-13.85 7.24,-22.37 4.65,-9.84 6.16,-3.23 11.82,-20.63 2.51,-7.73 2.93,-13.62 7.15,-22.04 12.85,-25.65 22.3,-63.35 32.92,-91.55 6.2,-16.45 6.88,-35.46 13.74,-47.84 7.95,4.54 12.41,9.02 18.07,17.58 9.22,13.96 4.13,6.6 7.16,25.51 3.5,21.86 5.6,11.1 11.6,25.02 3.2,7.41 3.53,19.44 5.98,27.3 3.33,10.7 7.77,15.51 11.08,25.47l23.83 79.37c7.18,15.92 4.11,8.45 8.75,28.44 3.9,16.82 6.03,11.24 10.41,21.67 5.84,13.9 0.51,15.29 8,28.9l21.56 47.69c3.74,9.56 2.71,16.48 6.78,26.32 5.47,13.18 8.29,10.39 12.68,23.16 7.01,20.4 7.26,33.08 23.07,64.8 16.16,32.42 5.04,20.37 12.76,38.7 4.79,11.36 6.76,5.54 10.28,21.92 10.79,50.26 9.56,7.12 18.14,50.9 3.95,20.13 5.11,14.11 10.71,26.81 3.7,8.39 2.7,16.31 5.61,27.22 6.11,22.89 6.08,1.54 11.99,24.32 3.03,11.68 0.94,16.88 5.5,28.42 6.79,17.19 4.67,3.75 9.15,27.86 3.65,19.61 3.59,9.59 10.17,22.34 4.53,8.77 4.76,19.08 7.71,29.01 2.89,9.74 25.94,53.57 23.73,75.13l-111.62 15.92zm-745.97 577.56c3.18,-16.78 15.23,-42.44 22.96,-58.88 3.07,-6.52 3.74,-5.34 7.06,-11.12l58 -124.82c13.26,-18.73 5.77,-15.14 14.18,-26.15 15.02,-19.66 31.23,-20.89 54.37,-23.57 40.21,-4.67 -5.69,-9.93 62.32,-15.24 30.4,-2.37 12.39,-3.99 29.63,-11.58 10.24,-4.51 24.51,-2.97 36.2,-3.32 41.51,-1.26 20.57,-13.28 65.62,-14.71 9.99,-0.32 27.84,-0.13 37.01,-1.94 23.77,-4.7 2.23,-6.48 26.75,-11.47 24.17,-4.91 50.78,0.7 74.5,-7.76 29.21,-10.41 35.7,-8.46 70.6,-10.69 31.07,-1.98 34.66,-13.96 62.05,-14.88 46.88,-1.57 37.38,4.67 73.42,-9.38 19.43,-7.58 51.3,-5.47 73.25,-5.98 37.79,-0.86 32.01,-12.91 65.75,-14.12 82.77,-2.98 70.59,-5.62 79.63,19.2 9.18,25.22 10.08,5.24 13.39,29.5l26.02 87.51c0.35,0.84 0.79,1.77 1.12,2.64 15.18,39.98 7.96,11.92 16.42,33.68 3.65,9.37 2.68,16.3 6.9,26.15l58.44 174.25c5.54,23.09 8.83,3.9 8.63,29.03 -2.52,16.07 -0.12,30.23 6.63,41.28l41.99 130.16c4.98,13.3 4.19,6.39 9.34,16.06 4.68,8.78 2.63,8.7 8.13,17.64 3.69,6.01 4.68,6.12 8.83,13.1 15.64,26.27 35.46,29.23 55.78,46.65 0.56,0.48 1.31,1.28 1.88,1.76 8.57,7.19 21.29,10.6 30.97,13.29 16.19,4.51 19.64,7 39.63,7.33 46.85,0.77 82.75,-6.3 107.68,-42.74 23.75,-34.72 27.22,-71.61 25.06,-118.33 -0.96,-20.8 -4.67,-26.69 -9.87,-41.38 -4.58,-12.95 -4.5,-27.46 -7.1,-40.55 -5.05,-25.31 -19.36,-50.5 -27.07,-72.29 -6.05,-17.08 -10.66,-19.76 -15.14,-36.17 -5.98,-21.88 -8.79,-15.13 -14.36,-33.2 -11.28,-36.59 -22.01,-47.84 -29.65,-64.9 -6.27,-13.99 -0.51,-24.83 -10.25,-41.97 -17.4,-30.59 -24.04,-73.34 -41.69,-104.48 -13.38,-23.61 -7.43,-3.46 -14.14,-36.47 -4.16,-20.48 -26.04,-60.73 -27.97,-67.06 -15.74,-51.65 3.3,-44.55 27.42,-62.67 14.06,-10.57 23.33,-25.03 34.87,-38.3 12.21,-14.03 33.83,-52.38 13.73,-96.68 -7.23,-15.95 -23.9,-26.4 -39.51,-33.51 -5.17,-2.35 -12.8,-4.61 -16.48,-5.8 -13.89,-4.49 -23.68,-7.7 -39.62,-8.63 -56.92,-3.32 -30.37,-7.44 -50.98,-47.17 -10.46,-20.16 -16.73,-58.55 -24.93,-74.1l-13.61 -37.76c-4.46,-11.78 -9.31,-20.74 -14.66,-32.58 -5.18,-11.46 -12.66,-23.88 -14.34,-32.07 -1.7,-8.31 -0.76,-14.66 -3.2,-23.5 -2.18,-7.87 -2.89,-6.1 -6.79,-15.47 -5.15,-12.39 -6.46,-24.44 -12.59,-38.59 -5.65,-13.04 -6.5,-24.03 -12.26,-35.27 -12.95,-25.27 -8.61,-28.23 -21.67,-54.96 -2.32,-4.74 -4.04,-10.83 -5.2,-15.93 -4.24,-18.75 -10.36,-18.79 -12.96,-38.53 -2.56,-19.48 1.47,-26.08 -6.74,-42.11l-10.86 -37c-3.69,-12.08 -9.41,-16.54 -12.72,-34.71 -1.59,-8.72 -1.73,-14.47 -3.85,-21.86 -5.64,-19.63 -1.23,-0.57 -8.05,-17.15l-20.81 -74.31c-4.34,-24.24 -7.99,-9.9 -12.84,-34.39l-11.9 -39.39c-6.05,-12.68 -3.17,-25.96 -8.23,-39.8l-22.44 -72.87c-6,-15.97 -0.9,-28.74 -9.5,-41.74 -6.68,-10.11 -4.59,0.07 -9.06,-16.18l-29.19 -91.09c-6.18,-21.93 -0.48,-20.72 -11.42,-40.3l-21.77 -73.25c-5.67,-31.79 -7.52,-9.51 -14.04,-33.1 -7.32,-26.45 -0.9,-17.69 -13.86,-38.25l-33.69 -39.57c-45.5,-44.64 -177.94,-66.66 -221.49,-16.62l-51.04 73.23c-4.28,11.46 -1.77,8.06 -7.44,18.21 -12.99,23.28 -13.46,62.5 -26.4,94.18 -5.08,12.44 -5.43,7.78 -9.32,16.51 -3.52,7.91 -2.25,9.79 -4.99,17.54l-16.73 30.21c-14.78,34.35 -33.59,66.63 -44.78,101.81 -6.15,19.36 -7.67,8.09 -14.81,32.47 -8.98,30.68 -31.06,73.21 -41.72,105.47l-28.5 70.32c-6.45,17.99 -3.78,18.15 -12.19,35.37 -11.22,22.98 -16.68,50.41 -27.62,71.13 -4.98,9.43 -5.22,2.64 -8.99,16.88 -6.84,25.85 -9.29,26.7 -20.27,52.48l-55.52 138.92c-6.95,23.34 -9.65,17.67 -16.03,34.58l-17.05 57.48c-4.99,17.62 -11.34,19.46 -13.02,27.31 -7.1,33.24 -7.28,18.59 -15.87,42.3l-29.2 65.43c-3.9,9.4 -1.66,10.2 -6.38,19.37 -4.17,8.1 -5.16,4.3 -9.08,16.56l-13.29 34.23c-3.97,9.16 -2.65,11.77 -5.24,21.19l-42.99 104.07c-3.97,15.6 -28.39,57.86 -30.47,63.83 -4.82,13.8 -3.46,17.39 -11.22,28.21l-93.02 185.7c-7.79,16.69 -3.07,15.62 -15.9,30.91 -3.36,4 -0.04,-1.07 -4.55,6.59l-20.64 41.88c-5.51,11.23 -9.09,23.5 -14.98,32.79l-34.16 64.69c-8.98,16.87 -4.02,16.54 -16.32,34.79l-24.45 48.83c-2.7,5.94 -4.92,8.19 -7.99,13.86 -14.35,26.48 -40.32,73.49 -47.27,99.24l-25.89 69.57c-20.93,44.95 -16.98,119.14 6.5,160.88 9.85,17.5 10.13,13.95 27.49,23.36 28.41,15.42 95.23,22.48 125.31,7.26 14.78,-7.48 43.06,-31.91 54.05,-44.23l51.23 -58.59c25.41,-33.79 46.75,-74.95 68.45,-111.01l19.07 -35.83c0.47,-0.61 1.22,-1.4 1.67,-2.04l2.95 -4.61c0.34,-0.61 3.03,-6.84 3.45,-7.73 3.17,-6.74 4.84,-8.68 7.66,-14.23l16.71 -34.38c4.91,-8.06 5.39,-21.07 13.12,-25.89z"/>
  <path class="fil1" d="M19474.45 3599.31c0,23.86 6.63,40.51 17.25,59.63l44.17 40.03c0.64,0.44 1.45,1.13 2.07,1.59 0.62,0.45 1.38,1.22 1.99,1.68 8.29,6.23 -0.28,1.99 8.64,6 6.43,2.89 16.58,3.4 23.6,5.69 10.18,3.32 5.23,3.78 17.5,8.13 26.55,9.44 45.86,1.98 70.17,10.38 40.44,13.97 94.56,7.15 140.75,16.68 49.21,10.15 102.52,7.62 153.48,7.62 39.19,-0 66.33,3.87 102.59,3.58 35.73,-0.28 60.56,7.4 98.78,7.4 84.36,0 159.61,-10.98 241.65,-10.98 18.87,0 7.61,6.79 1.85,12.01l-160.6 147.76 -215.79 230.89c-6.53,7.7 -11,11.72 -17.34,19.28 -2.97,3.53 -4.04,4.58 -6.83,7.81l-99.62 116.39c-0.51,0.56 -1.3,1.3 -1.81,1.86l-91.57 109.8c-2.68,3.27 -1.95,2.06 -5.22,5.77 -5.98,6.79 -10.36,12.04 -16.58,20.03l-45.36 57.16c-0.5,0.58 -1.18,1.41 -1.67,1.99 -0.49,0.58 -1.13,1.46 -1.61,2.05 -0.48,0.59 -1.11,1.48 -1.6,2.07 -0.48,0.59 -1.13,1.46 -1.62,2.05l-10.41 11.55c-39.43,47.31 -74.4,102.12 -113.73,149.88l-75.23 100.52c-0.47,0.6 -1.17,1.42 -1.65,2.01l-98.67 150.3 -12.27 38.98c-10.76,24.86 0.71,36.99 6.76,62.33 5.81,24.34 8.1,22 19.33,39.25l6.15 8.49c0.49,0.58 1.22,1.38 1.72,1.94 0.51,0.56 1.25,1.34 1.77,1.89 3.91,4.05 3.44,3.66 7.66,6.99 4.52,3.55 2.32,1.48 6.45,4.53l28.71 18.89c21.64,13.31 45.31,7.24 67.73,12.99 25.06,6.43 54.45,-3.53 83.98,-3.89 60.31,-0.74 129.48,3.11 183.75,-2.98 28.86,-3.24 64.89,1.09 94.68,-0.52 27.17,-1.47 61.67,-7.98 85.06,-4.8 55.19,7.49 127.22,-1.76 180.65,6.33 54.8,8.3 122.34,-1.06 179.37,7.36 66.95,9.89 149.93,5.34 221.29,13.03 56.45,6.09 64.86,11.01 131.78,11.01 36.89,0 41.16,5.56 71.38,-9.17 12.93,-6.3 16.85,-3.36 28.87,-7.74 13.54,-4.93 6.36,-3.68 15.2,-10.43 3.01,-2.3 3.32,-2.25 6.49,-4.5 6.72,-4.75 5.27,-3.96 10.45,-7.86 0.61,-0.46 1.45,-1.13 2.07,-1.59 10.22,-7.49 17.13,-11.92 24.21,-23.39l26.14 -47.08c12.87,-29.51 6.76,-72.07 -6.27,-99.72 -11.81,-25.04 -32.95,-56.71 -59.74,-68.4 -9.67,-4.22 -16.29,-3.18 -27.87,-8.74 -27.07,-12.98 -65.63,-7.51 -94.23,-15.61 -54.77,-15.5 -115.83,-2.71 -167.98,-15.08 -41.86,-9.93 -98.89,-6.64 -143.66,-6.46 -26.43,0.11 -40.45,-3.86 -69.47,-3.76l-443.03 0.01c17.16,-16.28 30.07,-39.54 42.79,-59.73l141.88 -187.64c0.49,-0.57 1.24,-1.35 1.73,-1.93l303.89 -355.14c58.71,-64.19 122.74,-124.07 184.81,-184.97l77.33 -72.78c32.11,-32.04 36.58,-25.46 38.41,-42.14 16.39,-1.36 11.21,-2.51 20.64,-12.3 5.44,-5.65 11.17,-10.5 17.55,-15.41 9.17,-7.04 9.67,-7.62 17.71,-15.24l11.45 -10.52c3.89,-3.57 2.06,-2.04 5.72,-5.26 35.08,-30.91 65.22,-66.89 95.45,-102.26l53.83 -77.97 15.63 -53.94c0,-7.2 -7.25,-16.16 -9.54,-27.08 -7.84,-37.59 5.55,-21.5 -28.96,-69.89 -3.22,-4.51 -0.77,-2.05 -4.34,-6.64 -12.98,-16.66 -45.37,-35.45 -65.32,-40.86 -39.31,-10.66 -48.39,-19.98 -106.86,-11.97 -17.59,2.41 -38.45,0.99 -59.07,3.17 -34.4,3.63 -74.19,10.75 -113.96,10.52 -42.7,-0.25 -79.91,2.18 -117.19,3.63 -38.85,1.51 -70.36,10.97 -113.51,10.97 -75.49,0 -201.53,5.64 -271.63,-2.97 -18.86,-2.32 -27.56,-5.02 -40.56,-7.04 -55.96,-8.65 -114.75,-2.66 -176.19,-14.2 -40.15,-7.54 -145.75,-10.24 -188.54,-1.01 -38.51,8.31 -81.12,15.06 -110.42,43.36l-20.93 23.01c-6.72,8.73 -3.8,1.68 -8.61,13.35l-13.07 30.87c-2.93,8.84 -4.83,28.28 -4.83,39.11z"/>
  <path class="fil1" d="M22846.51 3778.71l-7.31 571.17c-0.84,16.26 -3.59,17.55 -3.82,36.45 -1.27,103.05 -3.52,204.28 -3.52,311.35 0,104.94 -6.98,204.23 -3.78,311.33 0.33,10.94 4.46,63.11 7.46,69.42 15.18,31.91 33.05,53.12 62.05,73.42 12,8.4 34.69,10.21 47.26,14.98 33.19,12.62 80.33,4.97 111.39,-3.14 29.58,-7.72 54.26,-18.07 73.01,-44.15l3.01 -4.31c32.21,-42.84 27.07,-95.22 33.33,-153.4 3.89,-36.07 3.31,-79.74 3.09,-121.39 -0.13,-25.68 3.56,-36.56 3.83,-58.41l3.36 -432.33c0.28,-27.3 9.62,-64.73 11.02,-113.47l3.52 -88.01c1.38,-22.77 0.91,-8 9.31,-23.64 6.77,-12.61 4.58,-20.59 11.88,-32.06 4.85,-7.62 1.61,2.51 6.56,-11.74 8.39,-24.14 4.66,-10.52 14.33,-29.61 3.06,-6.04 1.82,-6.63 4.88,-13.43l46.82 -81.32c0.43,-0.67 0.98,-1.6 1.42,-2.25 30.17,-44.97 46.71,-65.38 86.3,-107.75 3.01,-3.22 2.88,-3.6 6.83,-7.81l32.7 -29.55c18.08,-13.86 37,-27.89 58.34,-36.85l7.96 -3.03c22.22,-10.91 11.24,-8.73 37.83,-13.43 9.77,-1.73 16.14,-6.26 23.8,-9.15 27.29,-10.3 65.26,-4.54 94.32,-4.54 22.6,0 32.32,11.84 55.49,14.08 17.89,1.72 14.38,-2.74 27.78,5.18l24.89 11.72c6.46,2.47 5.82,2.63 9.62,5.03 24.13,15.21 50.17,32.86 66.57,57.91l19.96 49.6 4.35 134.78c0.79,16.39 9.8,75.39 17.5,88.68l13.95 26.32c34.48,45.97 99.61,59.4 153.19,51.29 42.02,-6.36 39.77,-1.23 82.07,-20.49 17.18,-7.82 34.98,-27.84 43.7,-44.17 10.96,-20.54 9.33,-11.44 15.78,-39.14 7.5,-32.2 16.56,-42.81 14.52,-91.69l-3.65 -66.21c-0.12,-28.19 -9.13,-29.02 -11.58,-57.99 -3.48,-41.18 -7.83,-30.87 -15.19,-58.04 -1.76,-6.51 -1.53,-19.1 -4.36,-28.59 -3.41,-11.4 -7.6,-11.4 -12.13,-24.48l-28.13 -56.09c-4.33,-6.74 -1.3,-3.65 -6.89,-11.42l-30.34 -42.89c-4.83,-5.52 -12.36,-13.35 -17.8,-18.81l-72.3 -66.83c-6.52,-5.33 -11.41,-9.5 -18.43,-14.53l-105.59 -55.51c-18.43,-4.76 -15.28,-11.39 -36.18,-15.08 -17.53,-3.1 -13.41,-2.63 -27.45,-9.16 -17.12,-7.97 -39.1,-5.56 -58.63,-10.94 -14.27,-3.94 -11.67,-3.99 -29.97,-6.65 -29.85,-4.34 -75.23,-3.04 -104.42,0.49l-79.43 12.1c-20,3.13 -17.82,8.84 -34.87,12.73 -19.03,4.35 -19.2,-1.13 -35.55,8.39l-31.52 16.08c-17.47,11.07 -29.96,13.27 -58.55,32.98l-56.49 38.71c-21.38,16.19 -53.68,47.5 -69.89,69.24l-39.73 55.46c-3.13,5.74 -4.07,6.66 -8.44,13.53 -6.82,10.72 4.23,7.75 -13.22,12.41 -12.88,-9.44 -10.82,-22.61 -10.93,-43.99 -0.1,-20.42 -3.23,-28.26 -3.63,-51.29l-41.25 -123.51c-0.49,-0.58 -1.16,-1.43 -1.65,-2.01l-33.87 -32.03c-2.64,-1.82 -1.01,-2.08 -9.13,-5.51 -6.51,-2.74 -16.62,-3.89 -23.72,-5.57 -23.59,-5.57 -47.3,-14.2 -74.7,-8.2l-60.45 20.1c-0.62,0.45 -1.41,1.18 -2.03,1.63l-36.96 36.27 -21.28 40.96c-9.13,18.87 -5.87,31.11 -6.11,56.12 -0.39,39.07 -5.77,72.44 -3.8,113.31 1.06,21.97 3.66,35.82 3.66,62.29z"/>
  <path class="fil1" d="M14000.81 2947.6l-0.12 142.91c0.58,19.19 4.05,24.87 3.84,47.42 -0.34,37.12 7.34,61.25 7.39,95.13l9.86 407.53c4.21,30.67 3.31,70.18 -1.12,99.4 -6.65,43.95 -1.5,418.12 2.23,485.3 1.01,18.19 3.94,54.1 6.21,70.67 5.97,43.62 0.57,147.26 6.63,183.76 21.93,132.05 -1.78,567.97 13.17,601.93 3.06,6.94 3.44,5.15 6.55,11.76 8.57,18.18 -0.76,12.77 22.83,43.07 0.47,0.6 1.16,1.43 1.64,2.02l3.44 3.88c2.27,2.63 3.6,4.16 5.11,5.88 2.2,2.51 0.61,1.4 5.15,5.84 3.15,3.09 16.87,14.26 20.1,16.52l25.53 14.75c14.57,9.61 9.72,5.54 29.92,6.69 23.93,1.35 13.66,7.26 36.67,7.26 15.27,0 12.49,-6.24 36.56,-7.38 34.47,-1.63 26.18,-2.89 37.21,-10.39l48.99 -31.56c1.44,-1.46 6.95,-7.02 7.26,-7.38 3.63,-4.16 2.09,-2.49 4.77,-6.22 0.45,-0.63 0.98,-1.59 1.43,-2.23 0.45,-0.64 0.99,-1.58 1.45,-2.21l6.58 -8.06c30.22,-35.46 16.83,-30.41 28.7,-55.51 5.07,-10.72 4.3,-5.19 6.48,-19.15 12.34,-78.94 1.03,-495.9 -7.45,-593.05 -3.34,-38.28 -3.56,-77.57 -3.56,-120.93l-11.01 -721.26c-0.3,-21.69 -3.82,-32.6 -3.73,-54.85l0.13 -124.62c0.15,-25.66 -3.8,-34.85 -3.83,-58.41l4.79 -361.59c8.99,-65.6 6.32,-193.17 6.32,-264.61l-12.69 -71.52c-3.07,-9.81 -2.99,-6.8 -7.28,-14.69 -4.32,-7.93 -2.64,-6.26 -7.76,-14.21 -4.07,-6.34 -15.21,-19.78 -19.68,-24.26l-50.83 -33.38c-8.37,-3.43 -26.93,-2.25 -38.68,-5.25 -27.66,-7.06 -47.84,-16.04 -83.8,-2.5 -13.12,4.95 -14.52,2.61 -26.57,6.38 -5.95,1.86 -6.54,2.93 -9.7,4.94 -0.66,0.42 -1.46,1.12 -2.11,1.55 -0.64,0.43 -1.46,1.12 -2.11,1.55l-17.89 11.41c-15.78,12 -31.98,19.82 -42.6,41.6l-24.77 44.79c-12.25,24.43 -19.65,203.81 -19.65,251.28z"/>
  <path class="fil1" d="M14901.49 2925.63c0,110.45 -1.73,170.6 7.64,281.6 3.78,44.86 2.58,93.38 3.2,143.25 0.29,23.3 3.84,41.09 3.81,69.42 -0.03,24.41 0,48.82 0,73.23l3.85 142.6c6.45,77.89 -7.13,368.73 -0.73,425.44 5.01,44.41 -3.75,100.71 1.06,145.39l10.27 136.18c4.09,49.36 -2.39,96.22 5.86,140.59 17.89,96.21 6.05,448.27 8.76,577.05 0.45,21.39 14.29,49.24 26.25,65.28 37.31,50.05 19.23,27.2 68.46,59.68 14.51,9.57 9.74,5.58 29.93,6.68 34.57,1.88 7.53,13.89 53.64,2.26 33.69,-8.5 15.81,8.51 58.27,-14.96l27.97 -15.97c17.87,-11.1 5.59,1.25 19.58,-13.38l21.5 -26.1c24.12,-27.07 18.02,-29.27 25.12,-48.11 3.48,-9.22 6.85,-9.42 9.19,-20.1l4.49 -248.14c0,-36.31 -3.89,-63.06 -3.71,-95.14l0.17 -146.63c-0.03,-22.05 -3.76,-26.59 -3.91,-47.35 -0.25,-36.01 -6.96,-59.92 -7.34,-91.51l-9.84 -784.67c-9.44,-69.64 -7.82,-371.53 -8.35,-474.99 -0.41,-79.25 11.01,-205.22 11.01,-285.56 0,-70.55 3.52,-133.17 -11.91,-200.44 -3.11,-13.54 -23.15,-42.81 -33.71,-54.16l-52.59 -35.28c-8.35,-3.42 -26.96,-2.23 -38.71,-5.23 -23.39,-5.97 -48.53,-16.05 -81.23,-3.59 -52.83,20.13 -7.68,-11.14 -66.96,31.89 -9.02,6.55 -10.79,5.31 -19.45,13.5 -0.55,0.52 -1.26,1.34 -1.79,1.87l-13.39 15.9c-3.1,5.33 -1.78,4.43 -4.66,9.99l-12.82 20.13c-25.65,54.85 -13.73,53.6 -23.72,122.73l-5.18 126.63z"/>
  <path class="fil2" d="M5950.83 3793.35c0,-57.28 -3.07,-135.01 1.99,-190.16 3.87,-42.15 9.91,-256.17 6.46,-318.74 -1.74,-31.49 -21.34,-92.97 -51.77,-111.43l-18.98 -10.62c-5.43,-2.63 -14.24,-4.47 -20.57,-5.86 -50.31,-11.04 -87.69,-24.91 -137,0.71 -54.66,28.41 -52.93,50.2 -64.05,68.1 -0.43,0.7 -1.12,1.5 -1.54,2.22l-20.12 64.24c-7.48,44.48 -1.49,163.69 -1.72,215.95 -0.4,89.79 -4.98,222.16 7.62,300.8 12.68,79.11 7.36,611.9 7.66,768.3 0.2,102.31 13.64,188.24 14.52,270.94l4.2 362.47c-0.08,65.02 -8.86,162.05 13.35,218.24l25.52 36.75c49.48,43.72 126.84,54.05 180.14,17.7 18.21,-12.42 25.18,-10.29 38.82,-26.99 7.31,-8.94 26.93,-30.08 29.25,-38.7 15.64,-58.15 13.21,-33.49 13.45,-108.15 0.53,-163.05 2.53,-348.98 -11.7,-504.17 -12.65,-137.99 2.13,-413.04 -3.86,-579.58 -8.82,-128.5 -11.69,-270.32 -11.69,-406.4l0 -25.63z"/>
  <path class="fil2" d="M4840 3731.11c3.03,11.56 7.94,11.17 8.76,32.83 0.58,15.2 1.69,25.98 2.75,37.81 5.73,63.83 1.96,508.47 1.92,581.06 -0.05,99.52 -9.34,235.73 8.24,324.87 9.09,46.07 6.27,110.44 7.04,162.09 0.84,56.27 8,104.28 9.68,153.72 3.02,89.06 -6.85,333.71 7.03,392.02 4.62,19.43 30.27,45.08 46.55,57.7 23.75,18.4 65.43,30.54 95.37,21.87 55.47,-16.07 7.35,10.02 60.84,-21.79 38.15,-22.69 26.29,-24.79 42.36,-42.11 5.14,-5.55 14.55,-15.47 17.29,-21.95 9.02,-21.32 6.47,-132.04 6.63,-162.35 0.59,-111.9 -3.36,-220.44 -3.68,-329.52 -0.22,-78 7.81,-268.43 -7.79,-326.78 -4.54,-16.99 -6.69,-281.45 -6.76,-324.93 -0.35,-222.16 -1.28,-444.19 -0.68,-666.35 0.3,-110.69 2.07,-222.66 0.27,-333.23 -0.35,-21.64 0.42,-22.47 -8.17,-38.39 -24.75,-45.83 -15.35,-34.14 -49.12,-56.92 -18.1,-12.21 -62.75,-21.77 -77.25,-22.4 -41.6,-1.8 -35.46,3.36 -65.37,11.79 -24.78,6.98 -12.06,4.03 -28.18,15.78 -69.45,50.66 -52.01,96.04 -56.83,113.89 -7.06,26.16 -8.26,-10.25 -12.29,27 -2.28,21.13 -0.14,58.2 -0.24,81.1 -0.18,40.39 -2.73,316.59 1.61,333.18z"/>
  <path class="fil1" d="M6981.82 4418.77c-26.5,5.5 -67.54,2.62 -95.17,8.02 -15.53,3.03 -25.13,7.18 -41.34,10.22 -26.79,5.02 -20.29,5.35 -40.81,13.17 -39.63,15.1 -33.31,-12.53 -35.01,68.26 -0.61,28.88 -3.95,69.61 -8.21,97.2 -6.51,42.11 -10.57,383.08 -1.03,410.61 2.2,6.35 5.19,10.6 7.49,17.86 2.86,9.03 2.03,12.9 4.2,21.98 0.92,3.83 11.97,30.05 15.16,35.55 2.94,5.08 7.53,10.23 10.22,15.24 23.49,43.87 6.2,12.2 34.15,46.42 21.03,25.75 34.39,32.18 64.51,39.11 23.2,5.34 11.35,9.31 36.81,14.25 51.65,10.02 198.96,3.37 250.59,-1.7 16.77,-1.65 28.74,-7.26 41.43,-9.52 17.66,-3.14 32.22,-2.78 50.25,-5.32 21.44,-3.01 13.84,-9.75 37.37,-13.33 27.66,-4.21 38.87,-6.35 63.67,-18.07 49.83,-23.55 29.35,-3.16 53.09,-23.71 17.29,-14.99 43.3,-29.76 75.01,-57.14l19.29 -20.85c25.03,-34.54 47.84,-51.45 58.15,-84.5 8.02,-25.73 25.63,-43.3 29.56,-72.04 11,-80.49 23.6,-76.36 10.75,-194.09 -2.04,-18.69 -11.78,-55.93 -20.14,-71.28 -3.65,-6.71 -1.95,-4.13 -4.58,-10.8l-72.42 -90.97c-0.59,-0.53 -1.41,-1.28 -1.98,-1.82l-19.82 -16.7c-25.04,-20.02 -32.83,-16.48 -52.27,-28.37l-33.82 -17.51c-10.14,-4.58 -3.73,-4.14 -17.57,-8.14l-78.94 -27.69c-13.84,-3.71 -32.88,-1.22 -46.39,-5.22 -35.99,-10.63 -45.04,-15.19 -90.41,-16 -59.01,-1.05 -73.35,-9.06 -150.22,-7.22l-40.13 1.12c-5.8,0.78 -11.08,2.92 -11.41,2.99z"/>
  <path class="fil1" d="M7348.2 4097.76c21.49,-6.97 22.72,-16.62 50.31,-26.75l14.7 -7.94c0.74,-0.41 1.7,-0.89 2.45,-1.28 22.5,-11.87 39.5,-32.79 60.36,-52.79 26.11,-25.04 78.88,-97.89 90.41,-132.59 7.15,-21.53 11.27,-16.58 15.76,-38.5 2.98,-14.56 7.41,-30.89 10.85,-44.98 10.91,-44.67 15.14,-148.38 -0.72,-196.61 -4.73,-14.38 -16.35,-18.58 -36.14,-47.48 -2.87,-4.19 -8.23,-16.77 -8.55,-17.29 -10.23,-1.4 -8.96,6.26 -9.01,-1.83l-18.66 -13.5c-26.85,-14.91 -13.62,-11.26 -38.9,-19.27 -12.5,-3.96 -13.02,-6.03 -20.52,-9 -21.02,-8.35 -86.08,-4.09 -112.49,-3.2 -38.15,1.28 -56.26,12.63 -98.6,13.7 -16.5,0.42 -42.34,-1.53 -57.27,3.63 -11.13,3.85 -4.43,4.87 -19.36,8.69 -22.45,5.74 -59.44,-1.71 -82.57,6.85 -49.69,18.4 -44.62,6.6 -75.38,12.32 -34.68,6.44 23.19,6.66 -73.24,14.75l-92.95 24.29c-16.41,7.37 -28.98,4.32 -44.8,13.31 -12.45,7.07 -6.46,3.15 -21.69,8.44 -12.73,4.42 -8.19,5.34 -20.11,11.24 -5.78,39.59 -2,108.37 -2.16,151.11 -0.19,49.74 0.7,100.61 -0.41,150.19 -0.61,27.5 -12.53,36.73 -12.84,135.4 -0.16,50.2 -0.92,100.82 -0.06,150.97 56.23,-1.45 103.08,-10.19 161.83,-12.83 20.71,-0.93 111.04,-0.32 124.07,-4.22 25.21,-7.55 15.39,-10.65 70.3,-11.87 19.77,-0.44 24.99,2 38.59,-6.57 24.47,-15.42 50.36,-2.4 74.09,-14.05 14.56,-7.15 12.71,-7.01 30.46,-9.98 26.12,-4.38 15.92,-5.31 31.29,-11.96 12.49,-5.41 22.78,-3.03 35.39,-9.71 14.63,-7.74 14.68,-10.39 35.56,-10.68z"/>
  <path class="fil2" d="M4572.79 5946.11c1.39,-25.06 0.56,-51.57 0.56,-76.8 0,-13.52 -0.03,-26.95 0.22,-40.47 0.33,-17.89 3.49,-24.49 -8.29,-29.2l-2133.44 0.56c-9.12,5.49 -5.82,1.41 -6.57,17.27l1.26 129.65c81.6,6.56 187.6,0.91 271.84,0.91 446.68,0 893.36,0 1340.04,0 86.9,0 483.42,4.86 534.37,-1.92z"/>
  <path class="fil2" d="M8055.66 5802.59c-34.98,-11.46 -408.85,-4.09 -480.42,-4.09l-1200.91 0c-201.52,0 -165.43,-19.2 -165.43,74.47 0,87.31 -9.39,77.27 44.6,76.97 282.32,-1.57 1787.37,5.46 1797.71,-3.24l4.45 -144.11z"/>
  <path class="fil1" d="M3853.52 4483.4c2.21,-21.56 -20.83,-65.38 -23.73,-75.13 -2.95,-9.93 -3.18,-20.24 -7.71,-29.01 -6.58,-12.74 -6.52,-2.73 -10.17,-22.34 -4.48,-24.11 -2.36,-10.68 -9.15,-27.86 -4.56,-11.54 -2.47,-16.74 -5.5,-28.42 -5.91,-22.78 -5.89,-1.44 -11.99,-24.32 -2.91,-10.91 -1.91,-18.83 -5.61,-27.22 -5.6,-12.7 -6.76,-6.67 -10.71,-26.81 -8.58,-43.78 -7.35,-0.64 -18.14,-50.9 -3.52,-16.39 -5.49,-10.56 -10.28,-21.92 -7.72,-18.33 3.4,-6.29 -12.76,-38.7 -15.81,-31.72 -16.06,-44.4 -23.07,-64.8 -4.39,-12.77 -7.22,-9.97 -12.68,-23.16 -4.08,-9.84 -3.04,-16.77 -6.78,-26.32l-21.56 -47.69c-7.49,-13.61 -2.15,-15 -8,-28.9 -4.38,-10.43 -6.51,-4.85 -10.41,-21.67 -4.64,-19.99 -1.57,-12.52 -8.75,-28.44l-23.83 -79.37c-3.31,-9.97 -7.74,-14.78 -11.08,-25.47 -2.44,-7.86 -2.78,-19.89 -5.98,-27.3 -6,-13.92 -8.1,-3.16 -11.6,-25.02 -3.03,-18.91 2.06,-11.55 -7.16,-25.51 -5.66,-8.57 -10.12,-13.05 -18.07,-17.58 -6.86,12.38 -7.55,31.39 -13.74,47.84 -10.62,28.2 -20.07,65.9 -32.92,91.55 -4.22,8.42 -4.64,14.31 -7.15,22.04 -5.66,17.4 -7.17,10.78 -11.82,20.63 -4.03,8.52 -2.02,11.5 -7.24,22.37 -6.82,14.18 -4.13,3.23 -8.08,24.94 -3.36,18.47 -10.37,26.02 -15.83,47.24l-62.87 156.47c-4.84,13.75 -7.01,9.65 -11.3,21.38l-17.51 45.03c-5.01,11.07 -7.68,9.75 -12.42,19.63 -4.22,8.79 -3.93,16.13 -7.55,25.47 -4.38,11.28 -5.92,8.54 -10.18,19.05l-28.94 66.07c-3.09,7.23 -3.55,15.38 -6.76,22.7 -9.57,21.83 -5.9,0.49 -11.13,21.28 -5.45,21.65 -13.54,38.44 -25.29,56.14 -8.02,12.09 -4.23,21.77 -10.54,36.81l-19.82 42.59c-4.73,8.79 -4.11,12.61 -7.74,21.47 -5.1,12.47 -6.52,7.93 -11.89,20.65 -3.44,8.14 -3.14,13.54 -7.75,21.85 -4.38,7.89 -10.95,8.96 -9.06,22.52 3.35,24.07 49.08,2.27 98.25,-3.09 24.15,-2.63 34.63,0.17 55.64,-6.72 10.18,-3.33 39.11,-11.63 50.33,-13.21l109.88 -15c22.66,-2.32 35.92,-6.76 54.65,-8.58 63.74,-6.18 68.02,-11.29 110.69,-16.84 20.14,-2.62 40.9,-1.06 61.21,-2.5l111.62 -15.92z"/>
  <path class="fil3" d="M4840 3731.11c-4.35,-16.59 -1.79,-292.79 -1.61,-333.18 0.1,-22.9 -2.04,-59.97 0.24,-81.1 4.03,-37.25 5.23,-0.84 12.29,-27 4.82,-17.85 -12.62,-63.23 56.83,-113.89 16.12,-11.76 3.39,-8.8 28.18,-15.78 29.91,-8.42 23.77,-13.59 65.37,-11.79 14.5,0.63 59.15,10.19 77.25,22.4 33.76,22.78 24.37,11.08 49.12,56.92 8.59,15.92 7.82,16.75 8.17,38.39 1.79,110.57 0.03,222.53 -0.27,333.23 -0.6,222.16 0.33,444.2 0.68,666.35 0.07,43.48 2.22,307.94 6.76,324.93 15.59,58.35 7.57,248.78 7.79,326.78 0.31,109.08 4.27,217.62 3.68,329.52 -0.16,30.31 2.39,141.03 -6.63,162.35 -2.75,6.48 -12.15,16.4 -17.29,21.95 -16.06,17.32 -4.21,19.42 -42.36,42.11 -53.49,31.81 -5.37,5.72 -60.84,21.79 -29.94,8.67 -71.62,-3.47 -95.37,-21.87 -16.29,-12.61 -41.93,-38.27 -46.55,-57.7 -13.87,-58.32 -4,-302.96 -7.03,-392.02 -1.68,-49.44 -8.84,-97.45 -9.68,-153.72 -0.77,-51.65 2.05,-116.01 -7.04,-162.09 -17.59,-89.14 -8.29,-225.35 -8.24,-324.87 0.04,-72.59 3.81,-517.23 -1.92,-581.06 -1.06,-11.83 -2.18,-22.62 -2.75,-37.81 -0.82,-21.67 -5.73,-21.28 -8.76,-32.83zm5.96 391.76l-0.2 475.97c0.26,49.97 -1.23,115.23 3.28,163.72 17.93,192.43 13.74,397.24 13.77,594.17 0,45.81 7.8,72.61 39.34,106.5 10.43,11.21 26.35,23.4 42.1,31.05 25.22,12.25 20.17,15.04 57.14,15.42 66.99,0.68 138.23,-45.06 155.89,-100.1 3.95,-12.3 5.98,-18.01 8,-34.56l5.03 -351.49c-0.58,-55.93 -6.49,-113.19 -7.45,-168.44l-10.78 -699.28c-1.43,-182.99 -15.4,-358.39 -6.9,-545.53 0.2,-4.51 17.97,-300.14 6.82,-341.59 -8.88,-33.04 -7.63,-3.25 -10.81,-61.16l-11.76 -11.29c-6.24,-9.6 -3.34,-6.9 -10.74,-14.22 -14.22,-14.08 -20.48,-16.01 -22.15,-26.1 -11.87,-0.6 -19.78,0.7 -28.79,-8.09 -0.58,-0.56 -3.54,-5.92 -4.16,-6.8 -25.32,-1.18 -51.54,-1.74 -76.89,-1.63 -60.38,0.27 -31.97,-3.13 -78.49,16.61 -11.08,4.7 -8.28,5.21 -15.77,11.93 -11.26,10.1 -7.44,2.93 -14.55,14.85 -7.96,13.34 -26.11,39.68 -29.35,48.35 -25.84,69.06 -19.69,204.01 -19.07,291.27 0.68,97.15 -1.44,211.7 5.59,304.53 7.34,97 11.1,193.12 10.91,295.92z"/>
  <path class="fil4" d="M7348.2 4097.76c-20.89,0.29 -20.93,2.94 -35.56,10.68 -12.61,6.68 -22.9,4.3 -35.39,9.71 -15.37,6.66 -5.17,7.58 -31.29,11.96 -17.74,2.97 -15.9,2.83 -30.46,9.98 -23.73,11.65 -49.62,-1.37 -74.09,14.05 -13.6,8.57 -18.82,6.13 -38.59,6.57 -54.91,1.22 -45.09,4.31 -70.3,11.87 -13.03,3.91 -103.36,3.29 -124.07,4.22 -58.75,2.65 -105.6,11.38 -161.83,12.83 -0.86,-50.15 -0.1,-100.77 0.06,-150.97 0.31,-98.66 12.22,-107.89 12.84,-135.4 1.11,-49.58 0.22,-100.45 0.41,-150.19 0.16,-42.74 -3.62,-111.52 2.16,-151.11 11.92,-5.91 7.38,-6.82 20.11,-11.24 15.23,-5.29 9.25,-1.36 21.69,-8.44 15.82,-8.99 28.39,-5.95 44.8,-13.31l92.95 -24.29c96.43,-8.1 38.56,-8.32 73.24,-14.75 30.76,-5.71 25.7,6.08 75.38,-12.32 23.12,-8.56 60.11,-1.11 82.57,-6.85 14.93,-3.82 8.23,-4.84 19.36,-8.69 14.93,-5.16 40.77,-3.22 57.27,-3.63 42.34,-1.07 60.45,-12.42 98.6,-13.7 26.41,-0.89 91.48,-5.15 112.49,3.2 7.49,2.98 8.02,5.04 20.52,9 25.28,8.02 12.04,4.36 38.9,19.27l18.66 13.5c0.05,8.1 -1.22,0.43 9.01,1.83 -8.4,-20.87 -35.48,-33.67 -55.89,-42.95 -41.65,-18.92 -138.28,-15.42 -185.45,-9.46 -32.96,4.16 -48.39,10.3 -86.34,12.12 -57.12,2.75 -61.89,12.22 -83.91,13.92 -15.78,1.23 -32.17,1.49 -48,2.3 -35.56,1.81 -21.69,12.3 -80.26,16.21 -24.49,1.64 -24.8,3.68 -43.81,8.8 -11.59,3.12 -26.6,4.46 -40.57,6.63 -17.83,2.78 -25.1,7.87 -40.59,11.05 -13.75,2.83 -28.07,2.9 -41.19,7.36 -123.18,41.84 -97.28,19.9 -98.91,246.9 -0.43,60.1 -9.56,355.7 -1.79,390.95 45.47,6.54 279.39,-11.5 332.68,-17.38 15.37,-1.7 20.11,-5.47 36.71,-7.29 14.41,-1.58 26.76,-2.43 39.5,-4.71 29.44,-5.29 108.41,-25.12 135.72,-39.33 11.01,-5.73 35.5,-6.7 55.59,-22.04 7.41,-5.66 1.19,1.1 7.07,-6.89z"/>
  <path class="fil3" d="M2995.93 5076.88c1.09,-0.69 2.23,-1.69 3,-2.45 0.74,-0.73 1.95,-1.57 2.8,-2.48 12.41,-13.41 59.63,-114.83 64.44,-128.99l26.77 -51.97c6.82,-11.55 3.93,-19.04 11.86,-28.76 0.41,-0.5 1.16,-1.29 1.61,-1.75l8.27 -5.72c8.74,-3.76 7.05,-1.83 15.59,-3.53 21.47,-4.26 11.03,-7.04 29.63,-10.82 11.29,-2.3 29.79,-0.3 38.95,-2.62 15.42,-3.9 -1.63,-6.08 22.91,-12.39 10.68,-2.75 24.27,-2.3 36.26,-4.14 16.46,-2.53 17.23,-7.14 28.46,-10.56 19.97,-6.1 44.59,-2.72 67.41,-10.21 28.15,-9.24 43.34,-4.19 71.89,-9.66 9.12,-1.75 18.95,-7.33 29.19,-10.01l100.36 -16.77c28.93,-3.11 41.82,-1.5 68.09,-8.63l134.43 -21.86c25.28,-2.9 52.77,-0.18 77.04,-5.15 20.23,-4.14 44.06,-16.39 60.09,-0.83 18.4,22.71 -9.61,34.69 20.93,51.43 1.51,53.03 18.29,32.68 29.89,85.59 11.2,51.11 9.05,14.91 14.45,45.17 1.88,10.53 0.61,16.45 3.83,24.68 3.3,8.45 0.45,1.71 5.23,7.99l6.21 8.75c0.41,0.96 0.71,1.92 1.06,2.96l4.1 18.34c2.85,8 7.1,11.67 10.14,17.94l29.45 85.14c3.91,14.7 0.28,21.63 11.58,32.07 6.87,6.34 -2.3,-0.11 8.29,5.61 0.21,-25.12 -3.09,-5.94 -8.63,-29.03l-58.44 -174.25c-4.22,-9.85 -3.26,-16.78 -6.9,-26.15 -8.46,-21.76 -1.24,6.3 -16.42,-33.68 -0.33,-0.87 -0.77,-1.8 -1.12,-2.64l-26.02 -87.51c-3.31,-24.26 -4.21,-4.29 -13.39,-29.5 -9.04,-24.82 3.14,-22.19 -79.63,-19.2 -33.74,1.22 -27.96,13.26 -65.75,14.12 -21.95,0.51 -53.82,-1.6 -73.25,5.98 -36.05,14.06 -26.55,7.81 -73.42,9.38 -27.39,0.92 -30.98,12.9 -62.05,14.88 -34.91,2.23 -41.4,0.27 -70.6,10.69 -23.73,8.46 -50.33,2.85 -74.5,7.76 -24.52,4.99 -2.98,6.76 -26.75,11.47 -9.16,1.81 -27.01,1.62 -37.01,1.94 -45.05,1.42 -24.11,13.44 -65.62,14.71 -11.7,0.35 -25.97,-1.19 -36.2,3.32 -17.23,7.59 0.78,9.21 -29.63,11.58 -68.01,5.31 -22.11,10.57 -62.32,15.24 -23.14,2.69 -39.35,3.91 -54.37,23.57 -8.41,11 -0.91,7.41 -14.18,26.15l-58 124.82c-3.31,5.78 -3.99,4.6 -7.06,11.12 -7.73,16.43 -19.78,42.1 -22.96,58.88z"/>
 </g>
</svg>
